M48
; DRILL file {KiCad 6.0.2+dfsg-1} date 2023年01月12日 07時52分12秒
; FORMAT={-:-/ absolute / inch / decimal}
; #@! TF.CreationDate,2023-01-12T07:52:12+09:00
; #@! TF.GenerationSoftware,Kicad,Pcbnew,6.0.2+dfsg-1
; #@! TF.FileFunction,Plated,1,2,PTH
FMAT,2
INCH
; #@! TA.AperFunction,Plated,PTH,ComponentDrill
T1C0.0354
; #@! TA.AperFunction,Plated,PTH,ComponentDrill
T2C0.0394
; #@! TA.AperFunction,Plated,PTH,ComponentDrill
T3C0.0472
%
G90
G05
T1
X4.835Y-3.6081
X4.835Y-3.8331
T2
X5.0394Y-4.5669
X5.0394Y-4.6669
X5.1394Y-4.5669
X5.1394Y-4.6669
X5.2394Y-4.5669
X5.2394Y-4.6669
X5.3394Y-4.5669
X5.3394Y-4.6669
X5.4394Y-4.5669
X5.4394Y-4.6669
X5.5394Y-4.5669
X5.5394Y-4.6669
X5.6394Y-4.5669
X5.6394Y-4.6669
X5.7394Y-4.5669
X5.7394Y-4.6669
X5.8394Y-4.5669
X5.8394Y-4.6669
X5.9394Y-4.5669
X5.9394Y-4.6669
X6.0394Y-4.5669
X6.0394Y-4.6669
X6.1394Y-4.5669
X6.1394Y-4.6669
X6.2394Y-4.5669
X6.2394Y-4.6669
X6.3394Y-4.5669
X6.3394Y-4.6669
X6.4394Y-4.5669
X6.4394Y-4.6669
X6.5394Y-4.5669
X6.5394Y-4.6669
X6.6394Y-4.5669
X6.6394Y-4.6669
X6.7394Y-4.5669
X6.7394Y-4.6669
X6.8394Y-4.5669
X6.8394Y-4.6669
X6.9394Y-4.5669
X6.9394Y-4.6669
T3
X5.0394Y-3.3661
X5.1394Y-3.3661
X5.2394Y-3.3661
X5.3394Y-3.3661
X5.4394Y-3.3661
X5.5394Y-3.3661
X5.6394Y-3.3661
X5.7394Y-3.3661
X5.8394Y-3.3661
X5.9394Y-3.3661
X6.0394Y-3.3661
X6.1394Y-3.3661
X6.2394Y-3.3661
X6.3394Y-3.3661
X6.4394Y-3.3661
X6.5394Y-3.3661
X6.6394Y-3.3661
X6.7394Y-3.3661
X6.8394Y-3.3661
T0
M30
