%TF.GenerationSoftware,KiCad,Pcbnew,5.1.12-84ad8e8a86~92~ubuntu20.04.1*%
%TF.CreationDate,2022-08-11T21:58:25+09:00*%
%TF.ProjectId,Akashi-10,416b6173-6869-42d3-9130-2e6b69636164,rev?*%
%TF.SameCoordinates,Original*%
%TF.FileFunction,Soldermask,Top*%
%TF.FilePolarity,Negative*%
%FSLAX46Y46*%
G04 Gerber Fmt 4.6, Leading zero omitted, Abs format (unit mm)*
G04 Created by KiCad (PCBNEW 5.1.12-84ad8e8a86~92~ubuntu20.04.1) date 2022-08-11 21:58:25*
%MOMM*%
%LPD*%
G01*
G04 APERTURE LIST*
%ADD10C,1.900000*%
%ADD11C,2.000000*%
%ADD12C,2.800000*%
%ADD13C,1.600000*%
%ADD14R,1.600000X1.600000*%
%ADD15O,1.700000X1.700000*%
%ADD16R,1.700000X1.700000*%
%ADD17C,1.800000*%
G04 APERTURE END LIST*
D10*
%TO.C,REF\u002A\u002A*%
X176500000Y-134200000D03*
%TD*%
%TO.C,REF\u002A\u002A*%
X127500000Y-134200000D03*
%TD*%
D11*
%TO.C,REF\u002A\u002A*%
X132500000Y-97000000D03*
%TD*%
D12*
%TO.C,REF\u002A\u002A*%
X158500000Y-134200000D03*
%TD*%
%TO.C,REF\u002A\u002A*%
X171500000Y-134200000D03*
%TD*%
%TO.C,REF\u002A\u002A*%
X132500000Y-134200000D03*
%TD*%
D11*
%TO.C,REF\u002A\u002A*%
X171500000Y-110000000D03*
%TD*%
D13*
%TO.C,U1*%
X173720000Y-85500000D03*
X171180000Y-85500000D03*
X168640000Y-85500000D03*
X166100000Y-85500000D03*
X163560000Y-85500000D03*
X161020000Y-85500000D03*
X158480000Y-85500000D03*
X155940000Y-85500000D03*
X153400000Y-85500000D03*
X150860000Y-85500000D03*
X148320000Y-85500000D03*
X145780000Y-85500000D03*
X143240000Y-85500000D03*
X140700000Y-85500000D03*
X138160000Y-85500000D03*
X135620000Y-85500000D03*
X133080000Y-85500000D03*
X130540000Y-85500000D03*
D14*
X128000000Y-85500000D03*
%TD*%
D15*
%TO.C,J1*%
X176260000Y-118540000D03*
X176260000Y-116000000D03*
X173720000Y-118540000D03*
X173720000Y-116000000D03*
X171180000Y-118540000D03*
X171180000Y-116000000D03*
X168640000Y-118540000D03*
X168640000Y-116000000D03*
X166100000Y-118540000D03*
X166100000Y-116000000D03*
X163560000Y-118540000D03*
X163560000Y-116000000D03*
X161020000Y-118540000D03*
X161020000Y-116000000D03*
X158480000Y-118540000D03*
X158480000Y-116000000D03*
X155940000Y-118540000D03*
X155940000Y-116000000D03*
X153400000Y-118540000D03*
X153400000Y-116000000D03*
X150860000Y-118540000D03*
X150860000Y-116000000D03*
X148320000Y-118540000D03*
X148320000Y-116000000D03*
X145780000Y-118540000D03*
X145780000Y-116000000D03*
X143240000Y-118540000D03*
X143240000Y-116000000D03*
X140700000Y-118540000D03*
X140700000Y-116000000D03*
X138160000Y-118540000D03*
X138160000Y-116000000D03*
X135620000Y-118540000D03*
X135620000Y-116000000D03*
X133080000Y-118540000D03*
X133080000Y-116000000D03*
X130540000Y-118540000D03*
X130540000Y-116000000D03*
X128000000Y-118540000D03*
D16*
X128000000Y-116000000D03*
%TD*%
D17*
%TO.C,TP2*%
X122810000Y-91645000D03*
%TD*%
%TO.C,TP1*%
X122810000Y-97360000D03*
%TD*%
M02*
