M48
; DRILL file {KiCad 5.1.12-84ad8e8a86~92~ubuntu20.04.1} date 2022年08月11日 21時58分32秒
; FORMAT={3:3/ absolute / metric / suppress leading zeros}
; #@! TF.CreationDate,2022-08-11T21:58:32+09:00
; #@! TF.GenerationSoftware,Kicad,Pcbnew,5.1.12-84ad8e8a86~92~ubuntu20.04.1
FMAT,2
METRIC,TZ
T1C0.900
T2C1.000
T3C1.200
T4C1.900
T5C2.000
T6C2.800
%
G90
G05
T1
X122810Y-91645
X122810Y-97360
T2
X128000Y-116000
X128000Y-118540
X130540Y-116000
X130540Y-118540
X133080Y-116000
X133080Y-118540
X135620Y-116000
X135620Y-118540
X138160Y-116000
X138160Y-118540
X140700Y-116000
X140700Y-118540
X143240Y-116000
X143240Y-118540
X145780Y-116000
X145780Y-118540
X148320Y-116000
X148320Y-118540
X150860Y-116000
X150860Y-118540
X153400Y-116000
X153400Y-118540
X155940Y-116000
X155940Y-118540
X158480Y-116000
X158480Y-118540
X161020Y-116000
X161020Y-118540
X163560Y-116000
X163560Y-118540
X166100Y-116000
X166100Y-118540
X168640Y-116000
X168640Y-118540
X171180Y-116000
X171180Y-118540
X173720Y-116000
X173720Y-118540
X176260Y-116000
X176260Y-118540
T3
X128000Y-85500
X130540Y-85500
X133080Y-85500
X135620Y-85500
X138160Y-85500
X140700Y-85500
X143240Y-85500
X145780Y-85500
X148320Y-85500
X150860Y-85500
X153400Y-85500
X155940Y-85500
X158480Y-85500
X161020Y-85500
X163560Y-85500
X166100Y-85500
X168640Y-85500
X171180Y-85500
X173720Y-85500
T4
X127500Y-134200
X176500Y-134200
T5
X132500Y-97000
X171500Y-110000
T6
X132500Y-134200
X158500Y-134200
X171500Y-134200
T0
M30
