%TF.GenerationSoftware,KiCad,Pcbnew,5.1.12-84ad8e8a86~92~ubuntu20.04.1*%
%TF.CreationDate,2022-08-11T21:58:25+09:00*%
%TF.ProjectId,Akashi-10,416b6173-6869-42d3-9130-2e6b69636164,rev?*%
%TF.SameCoordinates,Original*%
%TF.FileFunction,Copper,L2,Bot*%
%TF.FilePolarity,Positive*%
%FSLAX46Y46*%
G04 Gerber Fmt 4.6, Leading zero omitted, Abs format (unit mm)*
G04 Created by KiCad (PCBNEW 5.1.12-84ad8e8a86~92~ubuntu20.04.1) date 2022-08-11 21:58:25*
%MOMM*%
%LPD*%
G01*
G04 APERTURE LIST*
%TA.AperFunction,ComponentPad*%
%ADD10C,1.600000*%
%TD*%
%TA.AperFunction,ComponentPad*%
%ADD11R,1.600000X1.600000*%
%TD*%
%TA.AperFunction,SMDPad,CuDef*%
%ADD12R,0.500000X6.000000*%
%TD*%
%TA.AperFunction,ComponentPad*%
%ADD13O,1.700000X1.700000*%
%TD*%
%TA.AperFunction,ComponentPad*%
%ADD14R,1.700000X1.700000*%
%TD*%
%TA.AperFunction,ComponentPad*%
%ADD15C,1.800000*%
%TD*%
%TA.AperFunction,Conductor*%
%ADD16C,0.250000*%
%TD*%
%TA.AperFunction,Conductor*%
%ADD17C,0.254000*%
%TD*%
%TA.AperFunction,Conductor*%
%ADD18C,0.100000*%
%TD*%
G04 APERTURE END LIST*
D10*
%TO.P,U1,19*%
%TO.N,Net-(J1-Pad2)*%
X173720000Y-85500000D03*
%TO.P,U1,18*%
%TO.N,Net-(J1-Pad35)*%
X171180000Y-85500000D03*
%TO.P,U1,17*%
%TO.N,Net-(J1-Pad33)*%
X168640000Y-85500000D03*
%TO.P,U1,16*%
%TO.N,Net-(J1-Pad31)*%
X166100000Y-85500000D03*
%TO.P,U1,15*%
%TO.N,Net-(J1-Pad29)*%
X163560000Y-85500000D03*
%TO.P,U1,14*%
%TO.N,Net-(J1-Pad27)*%
X161020000Y-85500000D03*
%TO.P,U1,13*%
%TO.N,Net-(J1-Pad25)*%
X158480000Y-85500000D03*
%TO.P,U1,12*%
%TO.N,Net-(J1-Pad23)*%
X155940000Y-85500000D03*
%TO.P,U1,11*%
%TO.N,Net-(J1-Pad21)*%
X153400000Y-85500000D03*
%TO.P,U1,10*%
%TO.N,Net-(J1-Pad19)*%
X150860000Y-85500000D03*
%TO.P,U1,9*%
%TO.N,Net-(J1-Pad17)*%
X148320000Y-85500000D03*
%TO.P,U1,8*%
%TO.N,Net-(J1-Pad15)*%
X145780000Y-85500000D03*
%TO.P,U1,7*%
%TO.N,Net-(J1-Pad13)*%
X143240000Y-85500000D03*
%TO.P,U1,6*%
%TO.N,Net-(J1-Pad11)*%
X140700000Y-85500000D03*
%TO.P,U1,5*%
%TO.N,Net-(J1-Pad9)*%
X138160000Y-85500000D03*
%TO.P,U1,4*%
%TO.N,Net-(J1-Pad7)*%
X135620000Y-85500000D03*
%TO.P,U1,3*%
%TO.N,Net-(J1-Pad5)*%
X133080000Y-85500000D03*
%TO.P,U1,2*%
%TO.N,Net-(J1-Pad3)*%
X130540000Y-85500000D03*
D11*
%TO.P,U1,1*%
%TO.N,Net-(J1-Pad1)*%
X128000000Y-85500000D03*
%TD*%
D12*
%TO.P,P1,16*%
%TO.N,GND*%
X174560000Y-134500000D03*
%TO.P,P1,15*%
X168860000Y-134500000D03*
%TO.P,P1,14*%
%TO.N,Net-(J1-Pad28)*%
X166580000Y-134500000D03*
%TO.P,P1,13*%
%TO.N,Net-(J1-Pad26)*%
X164300000Y-134500000D03*
%TO.P,P1,12*%
%TO.N,Net-(P1-Pad12)*%
X162200000Y-134500000D03*
%TO.P,P1,11*%
%TO.N,Net-(J1-Pad24)*%
X155804000Y-134500000D03*
%TO.P,P1,10*%
%TO.N,Net-(J1-Pad22)*%
X153548000Y-134500000D03*
%TO.P,P1,9*%
%TO.N,Net-(J1-Pad20)*%
X151292000Y-134500000D03*
%TO.P,P1,8*%
%TO.N,Net-(J1-Pad18)*%
X149036000Y-134500000D03*
%TO.P,P1,7*%
%TO.N,Net-(J1-Pad16)*%
X146780000Y-134500000D03*
%TO.P,P1,6*%
%TO.N,Net-(J1-Pad14)*%
X144524000Y-134500000D03*
%TO.P,P1,5*%
%TO.N,Net-(J1-Pad12)*%
X142268000Y-134500000D03*
%TO.P,P1,4*%
%TO.N,Net-(J1-Pad10)*%
X140012000Y-134500000D03*
%TO.P,P1,3*%
%TO.N,Net-(J1-Pad8)*%
X137756000Y-134500000D03*
%TO.P,P1,2*%
%TO.N,Net-(J1-Pad6)*%
X135500000Y-134500000D03*
%TO.P,P1,1*%
%TO.N,GND*%
X130000000Y-134500000D03*
%TD*%
D13*
%TO.P,J1,40*%
%TO.N,GND*%
X176260000Y-118540000D03*
%TO.P,J1,39*%
%TO.N,Net-(J1-Pad39)*%
X176260000Y-116000000D03*
%TO.P,J1,38*%
%TO.N,+3V3*%
X173720000Y-118540000D03*
%TO.P,J1,37*%
%TO.N,Net-(J1-Pad2)*%
X173720000Y-116000000D03*
%TO.P,J1,36*%
%TO.N,Net-(J1-Pad36)*%
X171180000Y-118540000D03*
%TO.P,J1,35*%
%TO.N,Net-(J1-Pad35)*%
X171180000Y-116000000D03*
%TO.P,J1,34*%
%TO.N,Net-(J1-Pad34)*%
X168640000Y-118540000D03*
%TO.P,J1,33*%
%TO.N,Net-(J1-Pad33)*%
X168640000Y-116000000D03*
%TO.P,J1,32*%
%TO.N,Net-(J1-Pad32)*%
X166100000Y-118540000D03*
%TO.P,J1,31*%
%TO.N,Net-(J1-Pad31)*%
X166100000Y-116000000D03*
%TO.P,J1,30*%
%TO.N,Net-(J1-Pad30)*%
X163560000Y-118540000D03*
%TO.P,J1,29*%
%TO.N,Net-(J1-Pad29)*%
X163560000Y-116000000D03*
%TO.P,J1,28*%
%TO.N,Net-(J1-Pad28)*%
X161020000Y-118540000D03*
%TO.P,J1,27*%
%TO.N,Net-(J1-Pad27)*%
X161020000Y-116000000D03*
%TO.P,J1,26*%
%TO.N,Net-(J1-Pad26)*%
X158480000Y-118540000D03*
%TO.P,J1,25*%
%TO.N,Net-(J1-Pad25)*%
X158480000Y-116000000D03*
%TO.P,J1,24*%
%TO.N,Net-(J1-Pad24)*%
X155940000Y-118540000D03*
%TO.P,J1,23*%
%TO.N,Net-(J1-Pad23)*%
X155940000Y-116000000D03*
%TO.P,J1,22*%
%TO.N,Net-(J1-Pad22)*%
X153400000Y-118540000D03*
%TO.P,J1,21*%
%TO.N,Net-(J1-Pad21)*%
X153400000Y-116000000D03*
%TO.P,J1,20*%
%TO.N,Net-(J1-Pad20)*%
X150860000Y-118540000D03*
%TO.P,J1,19*%
%TO.N,Net-(J1-Pad19)*%
X150860000Y-116000000D03*
%TO.P,J1,18*%
%TO.N,Net-(J1-Pad18)*%
X148320000Y-118540000D03*
%TO.P,J1,17*%
%TO.N,Net-(J1-Pad17)*%
X148320000Y-116000000D03*
%TO.P,J1,16*%
%TO.N,Net-(J1-Pad16)*%
X145780000Y-118540000D03*
%TO.P,J1,15*%
%TO.N,Net-(J1-Pad15)*%
X145780000Y-116000000D03*
%TO.P,J1,14*%
%TO.N,Net-(J1-Pad14)*%
X143240000Y-118540000D03*
%TO.P,J1,13*%
%TO.N,Net-(J1-Pad13)*%
X143240000Y-116000000D03*
%TO.P,J1,12*%
%TO.N,Net-(J1-Pad12)*%
X140700000Y-118540000D03*
%TO.P,J1,11*%
%TO.N,Net-(J1-Pad11)*%
X140700000Y-116000000D03*
%TO.P,J1,10*%
%TO.N,Net-(J1-Pad10)*%
X138160000Y-118540000D03*
%TO.P,J1,9*%
%TO.N,Net-(J1-Pad9)*%
X138160000Y-116000000D03*
%TO.P,J1,8*%
%TO.N,Net-(J1-Pad8)*%
X135620000Y-118540000D03*
%TO.P,J1,7*%
%TO.N,Net-(J1-Pad7)*%
X135620000Y-116000000D03*
%TO.P,J1,6*%
%TO.N,Net-(J1-Pad6)*%
X133080000Y-118540000D03*
%TO.P,J1,5*%
%TO.N,Net-(J1-Pad5)*%
X133080000Y-116000000D03*
%TO.P,J1,4*%
%TO.N,Net-(J1-Pad4)*%
X130540000Y-118540000D03*
%TO.P,J1,3*%
%TO.N,Net-(J1-Pad3)*%
X130540000Y-116000000D03*
%TO.P,J1,2*%
%TO.N,Net-(J1-Pad2)*%
X128000000Y-118540000D03*
D14*
%TO.P,J1,1*%
%TO.N,Net-(J1-Pad1)*%
X128000000Y-116000000D03*
%TD*%
D15*
%TO.P,TP2,1*%
%TO.N,+3V3*%
X122810000Y-91645000D03*
%TD*%
%TO.P,TP1,1*%
%TO.N,GND*%
X122810000Y-97360000D03*
%TD*%
D16*
%TO.N,GND*%
X130000000Y-134500000D02*
X130000000Y-127410000D01*
X174560000Y-134500000D02*
X174560000Y-129530000D01*
X168860000Y-134500000D02*
X168860000Y-128800000D01*
%TO.N,Net-(J1-Pad2)*%
X172355001Y-117364999D02*
X128840001Y-117364999D01*
X173720000Y-116000000D02*
X172355001Y-117364999D01*
X128840001Y-117364999D02*
X127890000Y-118315000D01*
X127890000Y-118315000D02*
X127890000Y-118950000D01*
%TO.N,Net-(J1-Pad28)*%
X160910000Y-124030000D02*
X160910000Y-118950000D01*
X166580000Y-129700000D02*
X160910000Y-124030000D01*
X166580000Y-134500000D02*
X166580000Y-129700000D01*
%TO.N,Net-(J1-Pad26)*%
X158370000Y-124030000D02*
X158370000Y-118315000D01*
X164300000Y-134500000D02*
X164300000Y-129960000D01*
X164300000Y-129960000D02*
X158370000Y-124030000D01*
%TO.N,Net-(J1-Pad24)*%
X155820000Y-134500000D02*
X155820000Y-118960000D01*
X155820000Y-118960000D02*
X155830000Y-118950000D01*
%TO.N,Net-(J1-Pad22)*%
X153540000Y-134500000D02*
X153540000Y-119200000D01*
X153540000Y-119200000D02*
X153290000Y-118950000D01*
%TO.N,Net-(J1-Pad20)*%
X151260000Y-134500000D02*
X151260000Y-128350000D01*
X151260000Y-128350000D02*
X150750000Y-127840000D01*
X150750000Y-127840000D02*
X150750000Y-118950000D01*
%TO.N,Net-(J1-Pad18)*%
X148900000Y-134500000D02*
X148900000Y-128530000D01*
X148900000Y-128530000D02*
X148210000Y-127840000D01*
X148210000Y-127840000D02*
X148210000Y-118950000D01*
X148210000Y-118950000D02*
X148210000Y-118315000D01*
%TO.N,Net-(J1-Pad16)*%
X146700000Y-134500000D02*
X146700000Y-128870000D01*
X146700000Y-128870000D02*
X145670000Y-127840000D01*
X145670000Y-127840000D02*
X145670000Y-118950000D01*
%TO.N,Net-(J1-Pad14)*%
X144420000Y-134500000D02*
X144420000Y-129130000D01*
X144420000Y-129130000D02*
X143130000Y-127840000D01*
X143130000Y-127840000D02*
X143130000Y-118950000D01*
%TO.N,Net-(J1-Pad12)*%
X140700000Y-118540000D02*
X140700000Y-127730000D01*
X142140000Y-129170000D02*
X140700000Y-127730000D01*
X142140000Y-134500000D02*
X142140000Y-129170000D01*
%TO.N,Net-(J1-Pad10)*%
X139860000Y-134500000D02*
X139860000Y-129650000D01*
X139860000Y-129650000D02*
X138050000Y-127840000D01*
X138050000Y-127840000D02*
X138050000Y-118950000D01*
%TO.N,Net-(J1-Pad8)*%
X137580000Y-134500000D02*
X137580000Y-129910000D01*
X137580000Y-129910000D02*
X135510000Y-127840000D01*
X135510000Y-127840000D02*
X135510000Y-118950000D01*
%TO.N,Net-(J1-Pad6)*%
X135300000Y-134500000D02*
X135300000Y-130170000D01*
X135300000Y-130170000D02*
X132970000Y-127840000D01*
X132970000Y-127840000D02*
X132970000Y-118950000D01*
%TD*%
D17*
%TO.N,GND*%
X184278000Y-130253000D02*
X167340000Y-130253000D01*
X167340000Y-129737323D01*
X167343676Y-129700000D01*
X167340000Y-129662677D01*
X167340000Y-129662667D01*
X167329003Y-129551014D01*
X167285546Y-129407753D01*
X167241327Y-129325026D01*
X167214974Y-129275723D01*
X167143799Y-129188997D01*
X167120001Y-129159999D01*
X167091003Y-129136201D01*
X161670000Y-123715199D01*
X161670000Y-119878113D01*
X161723411Y-119855990D01*
X161966632Y-119693475D01*
X162173475Y-119486632D01*
X162290000Y-119312240D01*
X162406525Y-119486632D01*
X162613368Y-119693475D01*
X162856589Y-119855990D01*
X163126842Y-119967932D01*
X163413740Y-120025000D01*
X163706260Y-120025000D01*
X163993158Y-119967932D01*
X164263411Y-119855990D01*
X164506632Y-119693475D01*
X164713475Y-119486632D01*
X164830000Y-119312240D01*
X164946525Y-119486632D01*
X165153368Y-119693475D01*
X165396589Y-119855990D01*
X165666842Y-119967932D01*
X165953740Y-120025000D01*
X166246260Y-120025000D01*
X166533158Y-119967932D01*
X166803411Y-119855990D01*
X167046632Y-119693475D01*
X167253475Y-119486632D01*
X167370000Y-119312240D01*
X167486525Y-119486632D01*
X167693368Y-119693475D01*
X167936589Y-119855990D01*
X168206842Y-119967932D01*
X168493740Y-120025000D01*
X168786260Y-120025000D01*
X169073158Y-119967932D01*
X169343411Y-119855990D01*
X169586632Y-119693475D01*
X169793475Y-119486632D01*
X169910000Y-119312240D01*
X170026525Y-119486632D01*
X170233368Y-119693475D01*
X170476589Y-119855990D01*
X170746842Y-119967932D01*
X171033740Y-120025000D01*
X171326260Y-120025000D01*
X171613158Y-119967932D01*
X171883411Y-119855990D01*
X172126632Y-119693475D01*
X172333475Y-119486632D01*
X172450000Y-119312240D01*
X172566525Y-119486632D01*
X172773368Y-119693475D01*
X173016589Y-119855990D01*
X173286842Y-119967932D01*
X173573740Y-120025000D01*
X173866260Y-120025000D01*
X174153158Y-119967932D01*
X174423411Y-119855990D01*
X174666632Y-119693475D01*
X174873475Y-119486632D01*
X174995195Y-119304466D01*
X175064822Y-119421355D01*
X175259731Y-119637588D01*
X175493080Y-119811641D01*
X175755901Y-119936825D01*
X175903110Y-119981476D01*
X176133000Y-119860155D01*
X176133000Y-118667000D01*
X176387000Y-118667000D01*
X176387000Y-119860155D01*
X176616890Y-119981476D01*
X176764099Y-119936825D01*
X177026920Y-119811641D01*
X177260269Y-119637588D01*
X177455178Y-119421355D01*
X177604157Y-119171252D01*
X177701481Y-118896891D01*
X177580814Y-118667000D01*
X176387000Y-118667000D01*
X176133000Y-118667000D01*
X176113000Y-118667000D01*
X176113000Y-118413000D01*
X176133000Y-118413000D01*
X176133000Y-118393000D01*
X176387000Y-118393000D01*
X176387000Y-118413000D01*
X177580814Y-118413000D01*
X177701481Y-118183109D01*
X177604157Y-117908748D01*
X177455178Y-117658645D01*
X177260269Y-117442412D01*
X177030594Y-117271100D01*
X177206632Y-117153475D01*
X177413475Y-116946632D01*
X177575990Y-116703411D01*
X177687932Y-116433158D01*
X177745000Y-116146260D01*
X177745000Y-115853740D01*
X177687932Y-115566842D01*
X177575990Y-115296589D01*
X177413475Y-115053368D01*
X177206632Y-114846525D01*
X176963411Y-114684010D01*
X176693158Y-114572068D01*
X176406260Y-114515000D01*
X176113740Y-114515000D01*
X175826842Y-114572068D01*
X175556589Y-114684010D01*
X175313368Y-114846525D01*
X175106525Y-115053368D01*
X174990000Y-115227760D01*
X174873475Y-115053368D01*
X174666632Y-114846525D01*
X174423411Y-114684010D01*
X174153158Y-114572068D01*
X173866260Y-114515000D01*
X173573740Y-114515000D01*
X173286842Y-114572068D01*
X173016589Y-114684010D01*
X172773368Y-114846525D01*
X172566525Y-115053368D01*
X172450000Y-115227760D01*
X172333475Y-115053368D01*
X172126632Y-114846525D01*
X171883411Y-114684010D01*
X171613158Y-114572068D01*
X171326260Y-114515000D01*
X171033740Y-114515000D01*
X170746842Y-114572068D01*
X170476589Y-114684010D01*
X170233368Y-114846525D01*
X170026525Y-115053368D01*
X169910000Y-115227760D01*
X169793475Y-115053368D01*
X169586632Y-114846525D01*
X169343411Y-114684010D01*
X169073158Y-114572068D01*
X168786260Y-114515000D01*
X168493740Y-114515000D01*
X168206842Y-114572068D01*
X167936589Y-114684010D01*
X167693368Y-114846525D01*
X167486525Y-115053368D01*
X167370000Y-115227760D01*
X167253475Y-115053368D01*
X167046632Y-114846525D01*
X166803411Y-114684010D01*
X166533158Y-114572068D01*
X166246260Y-114515000D01*
X165953740Y-114515000D01*
X165666842Y-114572068D01*
X165396589Y-114684010D01*
X165153368Y-114846525D01*
X164946525Y-115053368D01*
X164830000Y-115227760D01*
X164713475Y-115053368D01*
X164506632Y-114846525D01*
X164263411Y-114684010D01*
X163993158Y-114572068D01*
X163706260Y-114515000D01*
X163413740Y-114515000D01*
X163126842Y-114572068D01*
X162856589Y-114684010D01*
X162613368Y-114846525D01*
X162406525Y-115053368D01*
X162290000Y-115227760D01*
X162173475Y-115053368D01*
X161966632Y-114846525D01*
X161723411Y-114684010D01*
X161453158Y-114572068D01*
X161166260Y-114515000D01*
X160873740Y-114515000D01*
X160586842Y-114572068D01*
X160316589Y-114684010D01*
X160073368Y-114846525D01*
X159866525Y-115053368D01*
X159750000Y-115227760D01*
X159633475Y-115053368D01*
X159426632Y-114846525D01*
X159183411Y-114684010D01*
X158913158Y-114572068D01*
X158626260Y-114515000D01*
X158333740Y-114515000D01*
X158046842Y-114572068D01*
X157776589Y-114684010D01*
X157533368Y-114846525D01*
X157326525Y-115053368D01*
X157210000Y-115227760D01*
X157093475Y-115053368D01*
X156886632Y-114846525D01*
X156643411Y-114684010D01*
X156373158Y-114572068D01*
X156086260Y-114515000D01*
X155793740Y-114515000D01*
X155506842Y-114572068D01*
X155236589Y-114684010D01*
X154993368Y-114846525D01*
X154786525Y-115053368D01*
X154670000Y-115227760D01*
X154553475Y-115053368D01*
X154346632Y-114846525D01*
X154103411Y-114684010D01*
X153833158Y-114572068D01*
X153546260Y-114515000D01*
X153253740Y-114515000D01*
X152966842Y-114572068D01*
X152696589Y-114684010D01*
X152453368Y-114846525D01*
X152246525Y-115053368D01*
X152130000Y-115227760D01*
X152013475Y-115053368D01*
X151806632Y-114846525D01*
X151563411Y-114684010D01*
X151293158Y-114572068D01*
X151006260Y-114515000D01*
X150713740Y-114515000D01*
X150426842Y-114572068D01*
X150156589Y-114684010D01*
X149913368Y-114846525D01*
X149706525Y-115053368D01*
X149590000Y-115227760D01*
X149473475Y-115053368D01*
X149266632Y-114846525D01*
X149023411Y-114684010D01*
X148753158Y-114572068D01*
X148466260Y-114515000D01*
X148173740Y-114515000D01*
X147886842Y-114572068D01*
X147616589Y-114684010D01*
X147373368Y-114846525D01*
X147166525Y-115053368D01*
X147050000Y-115227760D01*
X146933475Y-115053368D01*
X146726632Y-114846525D01*
X146483411Y-114684010D01*
X146213158Y-114572068D01*
X145926260Y-114515000D01*
X145633740Y-114515000D01*
X145346842Y-114572068D01*
X145076589Y-114684010D01*
X144833368Y-114846525D01*
X144626525Y-115053368D01*
X144510000Y-115227760D01*
X144393475Y-115053368D01*
X144186632Y-114846525D01*
X143943411Y-114684010D01*
X143673158Y-114572068D01*
X143386260Y-114515000D01*
X143093740Y-114515000D01*
X142806842Y-114572068D01*
X142536589Y-114684010D01*
X142293368Y-114846525D01*
X142086525Y-115053368D01*
X141970000Y-115227760D01*
X141853475Y-115053368D01*
X141646632Y-114846525D01*
X141403411Y-114684010D01*
X141133158Y-114572068D01*
X140846260Y-114515000D01*
X140553740Y-114515000D01*
X140266842Y-114572068D01*
X139996589Y-114684010D01*
X139753368Y-114846525D01*
X139546525Y-115053368D01*
X139430000Y-115227760D01*
X139313475Y-115053368D01*
X139106632Y-114846525D01*
X138863411Y-114684010D01*
X138593158Y-114572068D01*
X138306260Y-114515000D01*
X138013740Y-114515000D01*
X137726842Y-114572068D01*
X137456589Y-114684010D01*
X137213368Y-114846525D01*
X137006525Y-115053368D01*
X136890000Y-115227760D01*
X136773475Y-115053368D01*
X136566632Y-114846525D01*
X136323411Y-114684010D01*
X136053158Y-114572068D01*
X135766260Y-114515000D01*
X135473740Y-114515000D01*
X135186842Y-114572068D01*
X134916589Y-114684010D01*
X134673368Y-114846525D01*
X134466525Y-115053368D01*
X134350000Y-115227760D01*
X134233475Y-115053368D01*
X134026632Y-114846525D01*
X133783411Y-114684010D01*
X133513158Y-114572068D01*
X133226260Y-114515000D01*
X132933740Y-114515000D01*
X132646842Y-114572068D01*
X132376589Y-114684010D01*
X132133368Y-114846525D01*
X131926525Y-115053368D01*
X131810000Y-115227760D01*
X131693475Y-115053368D01*
X131486632Y-114846525D01*
X131243411Y-114684010D01*
X130973158Y-114572068D01*
X130686260Y-114515000D01*
X130393740Y-114515000D01*
X130106842Y-114572068D01*
X129836589Y-114684010D01*
X129593368Y-114846525D01*
X129461513Y-114978380D01*
X129439502Y-114905820D01*
X129380537Y-114795506D01*
X129301185Y-114698815D01*
X129204494Y-114619463D01*
X129094180Y-114560498D01*
X128974482Y-114524188D01*
X128850000Y-114511928D01*
X127150000Y-114511928D01*
X127025518Y-114524188D01*
X126905820Y-114560498D01*
X126795506Y-114619463D01*
X126698815Y-114698815D01*
X126619463Y-114795506D01*
X126560498Y-114905820D01*
X126524188Y-115025518D01*
X126511928Y-115150000D01*
X126511928Y-116850000D01*
X126524188Y-116974482D01*
X126560498Y-117094180D01*
X126619463Y-117204494D01*
X126698815Y-117301185D01*
X126795506Y-117380537D01*
X126905820Y-117439502D01*
X126978380Y-117461513D01*
X126846525Y-117593368D01*
X126684010Y-117836589D01*
X126572068Y-118106842D01*
X126515000Y-118393740D01*
X126515000Y-118686260D01*
X126572068Y-118973158D01*
X126684010Y-119243411D01*
X126846525Y-119486632D01*
X127053368Y-119693475D01*
X127296589Y-119855990D01*
X127566842Y-119967932D01*
X127853740Y-120025000D01*
X128146260Y-120025000D01*
X128433158Y-119967932D01*
X128703411Y-119855990D01*
X128946632Y-119693475D01*
X129153475Y-119486632D01*
X129270000Y-119312240D01*
X129386525Y-119486632D01*
X129593368Y-119693475D01*
X129836589Y-119855990D01*
X130106842Y-119967932D01*
X130393740Y-120025000D01*
X130686260Y-120025000D01*
X130973158Y-119967932D01*
X131243411Y-119855990D01*
X131486632Y-119693475D01*
X131693475Y-119486632D01*
X131810000Y-119312240D01*
X131926525Y-119486632D01*
X132133368Y-119693475D01*
X132210001Y-119744679D01*
X132210000Y-127802678D01*
X132206324Y-127840000D01*
X132210000Y-127877322D01*
X132210000Y-127877332D01*
X132220997Y-127988985D01*
X132261042Y-128120997D01*
X132264454Y-128132246D01*
X132335026Y-128264276D01*
X132374740Y-128312667D01*
X132429999Y-128380001D01*
X132459003Y-128403804D01*
X134308198Y-130253000D01*
X119762000Y-130253000D01*
X119762000Y-109838967D01*
X169865000Y-109838967D01*
X169865000Y-110161033D01*
X169927832Y-110476912D01*
X170051082Y-110774463D01*
X170230013Y-111042252D01*
X170457748Y-111269987D01*
X170725537Y-111448918D01*
X171023088Y-111572168D01*
X171338967Y-111635000D01*
X171661033Y-111635000D01*
X171976912Y-111572168D01*
X172274463Y-111448918D01*
X172542252Y-111269987D01*
X172769987Y-111042252D01*
X172948918Y-110774463D01*
X173072168Y-110476912D01*
X173135000Y-110161033D01*
X173135000Y-109838967D01*
X173072168Y-109523088D01*
X172948918Y-109225537D01*
X172769987Y-108957748D01*
X172542252Y-108730013D01*
X172274463Y-108551082D01*
X171976912Y-108427832D01*
X171661033Y-108365000D01*
X171338967Y-108365000D01*
X171023088Y-108427832D01*
X170725537Y-108551082D01*
X170457748Y-108730013D01*
X170230013Y-108957748D01*
X170051082Y-109225537D01*
X169927832Y-109523088D01*
X169865000Y-109838967D01*
X119762000Y-109838967D01*
X119762000Y-98424080D01*
X121925525Y-98424080D01*
X122009208Y-98678261D01*
X122281775Y-98809158D01*
X122574642Y-98884365D01*
X122876553Y-98900991D01*
X123175907Y-98858397D01*
X123461199Y-98758222D01*
X123610792Y-98678261D01*
X123694475Y-98424080D01*
X122810000Y-97539605D01*
X121925525Y-98424080D01*
X119762000Y-98424080D01*
X119762000Y-97426553D01*
X121269009Y-97426553D01*
X121311603Y-97725907D01*
X121411778Y-98011199D01*
X121491739Y-98160792D01*
X121745920Y-98244475D01*
X122630395Y-97360000D01*
X122989605Y-97360000D01*
X123874080Y-98244475D01*
X124128261Y-98160792D01*
X124259158Y-97888225D01*
X124334365Y-97595358D01*
X124350991Y-97293447D01*
X124308397Y-96994093D01*
X124253928Y-96838967D01*
X130865000Y-96838967D01*
X130865000Y-97161033D01*
X130927832Y-97476912D01*
X131051082Y-97774463D01*
X131230013Y-98042252D01*
X131457748Y-98269987D01*
X131725537Y-98448918D01*
X132023088Y-98572168D01*
X132338967Y-98635000D01*
X132661033Y-98635000D01*
X132976912Y-98572168D01*
X133274463Y-98448918D01*
X133542252Y-98269987D01*
X133769987Y-98042252D01*
X133948918Y-97774463D01*
X134072168Y-97476912D01*
X134135000Y-97161033D01*
X134135000Y-96838967D01*
X134072168Y-96523088D01*
X133948918Y-96225537D01*
X133769987Y-95957748D01*
X133542252Y-95730013D01*
X133274463Y-95551082D01*
X132976912Y-95427832D01*
X132661033Y-95365000D01*
X132338967Y-95365000D01*
X132023088Y-95427832D01*
X131725537Y-95551082D01*
X131457748Y-95730013D01*
X131230013Y-95957748D01*
X131051082Y-96225537D01*
X130927832Y-96523088D01*
X130865000Y-96838967D01*
X124253928Y-96838967D01*
X124208222Y-96708801D01*
X124128261Y-96559208D01*
X123874080Y-96475525D01*
X122989605Y-97360000D01*
X122630395Y-97360000D01*
X121745920Y-96475525D01*
X121491739Y-96559208D01*
X121360842Y-96831775D01*
X121285635Y-97124642D01*
X121269009Y-97426553D01*
X119762000Y-97426553D01*
X119762000Y-96295920D01*
X121925525Y-96295920D01*
X122810000Y-97180395D01*
X123694475Y-96295920D01*
X123610792Y-96041739D01*
X123338225Y-95910842D01*
X123045358Y-95835635D01*
X122743447Y-95819009D01*
X122444093Y-95861603D01*
X122158801Y-95961778D01*
X122009208Y-96041739D01*
X121925525Y-96295920D01*
X119762000Y-96295920D01*
X119762000Y-91493816D01*
X121275000Y-91493816D01*
X121275000Y-91796184D01*
X121333989Y-92092743D01*
X121449701Y-92372095D01*
X121617688Y-92623505D01*
X121831495Y-92837312D01*
X122082905Y-93005299D01*
X122362257Y-93121011D01*
X122658816Y-93180000D01*
X122961184Y-93180000D01*
X123257743Y-93121011D01*
X123537095Y-93005299D01*
X123788505Y-92837312D01*
X124002312Y-92623505D01*
X124170299Y-92372095D01*
X124286011Y-92092743D01*
X124345000Y-91796184D01*
X124345000Y-91493816D01*
X124286011Y-91197257D01*
X124170299Y-90917905D01*
X124002312Y-90666495D01*
X123788505Y-90452688D01*
X123537095Y-90284701D01*
X123257743Y-90168989D01*
X122961184Y-90110000D01*
X122658816Y-90110000D01*
X122362257Y-90168989D01*
X122082905Y-90284701D01*
X121831495Y-90452688D01*
X121617688Y-90666495D01*
X121449701Y-90917905D01*
X121333989Y-91197257D01*
X121275000Y-91493816D01*
X119762000Y-91493816D01*
X119762000Y-84700000D01*
X126561928Y-84700000D01*
X126561928Y-86300000D01*
X126574188Y-86424482D01*
X126610498Y-86544180D01*
X126669463Y-86654494D01*
X126748815Y-86751185D01*
X126845506Y-86830537D01*
X126955820Y-86889502D01*
X127075518Y-86925812D01*
X127200000Y-86938072D01*
X128800000Y-86938072D01*
X128924482Y-86925812D01*
X129044180Y-86889502D01*
X129154494Y-86830537D01*
X129251185Y-86751185D01*
X129330537Y-86654494D01*
X129389502Y-86544180D01*
X129425812Y-86424482D01*
X129426643Y-86416039D01*
X129625241Y-86614637D01*
X129860273Y-86771680D01*
X130121426Y-86879853D01*
X130398665Y-86935000D01*
X130681335Y-86935000D01*
X130958574Y-86879853D01*
X131219727Y-86771680D01*
X131454759Y-86614637D01*
X131654637Y-86414759D01*
X131810000Y-86182241D01*
X131965363Y-86414759D01*
X132165241Y-86614637D01*
X132400273Y-86771680D01*
X132661426Y-86879853D01*
X132938665Y-86935000D01*
X133221335Y-86935000D01*
X133498574Y-86879853D01*
X133759727Y-86771680D01*
X133994759Y-86614637D01*
X134194637Y-86414759D01*
X134350000Y-86182241D01*
X134505363Y-86414759D01*
X134705241Y-86614637D01*
X134940273Y-86771680D01*
X135201426Y-86879853D01*
X135478665Y-86935000D01*
X135761335Y-86935000D01*
X136038574Y-86879853D01*
X136299727Y-86771680D01*
X136534759Y-86614637D01*
X136734637Y-86414759D01*
X136890000Y-86182241D01*
X137045363Y-86414759D01*
X137245241Y-86614637D01*
X137480273Y-86771680D01*
X137741426Y-86879853D01*
X138018665Y-86935000D01*
X138301335Y-86935000D01*
X138578574Y-86879853D01*
X138839727Y-86771680D01*
X139074759Y-86614637D01*
X139274637Y-86414759D01*
X139430000Y-86182241D01*
X139585363Y-86414759D01*
X139785241Y-86614637D01*
X140020273Y-86771680D01*
X140281426Y-86879853D01*
X140558665Y-86935000D01*
X140841335Y-86935000D01*
X141118574Y-86879853D01*
X141379727Y-86771680D01*
X141614759Y-86614637D01*
X141814637Y-86414759D01*
X141970000Y-86182241D01*
X142125363Y-86414759D01*
X142325241Y-86614637D01*
X142560273Y-86771680D01*
X142821426Y-86879853D01*
X143098665Y-86935000D01*
X143381335Y-86935000D01*
X143658574Y-86879853D01*
X143919727Y-86771680D01*
X144154759Y-86614637D01*
X144354637Y-86414759D01*
X144510000Y-86182241D01*
X144665363Y-86414759D01*
X144865241Y-86614637D01*
X145100273Y-86771680D01*
X145361426Y-86879853D01*
X145638665Y-86935000D01*
X145921335Y-86935000D01*
X146198574Y-86879853D01*
X146459727Y-86771680D01*
X146694759Y-86614637D01*
X146894637Y-86414759D01*
X147050000Y-86182241D01*
X147205363Y-86414759D01*
X147405241Y-86614637D01*
X147640273Y-86771680D01*
X147901426Y-86879853D01*
X148178665Y-86935000D01*
X148461335Y-86935000D01*
X148738574Y-86879853D01*
X148999727Y-86771680D01*
X149234759Y-86614637D01*
X149434637Y-86414759D01*
X149590000Y-86182241D01*
X149745363Y-86414759D01*
X149945241Y-86614637D01*
X150180273Y-86771680D01*
X150441426Y-86879853D01*
X150718665Y-86935000D01*
X151001335Y-86935000D01*
X151278574Y-86879853D01*
X151539727Y-86771680D01*
X151774759Y-86614637D01*
X151974637Y-86414759D01*
X152130000Y-86182241D01*
X152285363Y-86414759D01*
X152485241Y-86614637D01*
X152720273Y-86771680D01*
X152981426Y-86879853D01*
X153258665Y-86935000D01*
X153541335Y-86935000D01*
X153818574Y-86879853D01*
X154079727Y-86771680D01*
X154314759Y-86614637D01*
X154514637Y-86414759D01*
X154670000Y-86182241D01*
X154825363Y-86414759D01*
X155025241Y-86614637D01*
X155260273Y-86771680D01*
X155521426Y-86879853D01*
X155798665Y-86935000D01*
X156081335Y-86935000D01*
X156358574Y-86879853D01*
X156619727Y-86771680D01*
X156854759Y-86614637D01*
X157054637Y-86414759D01*
X157210000Y-86182241D01*
X157365363Y-86414759D01*
X157565241Y-86614637D01*
X157800273Y-86771680D01*
X158061426Y-86879853D01*
X158338665Y-86935000D01*
X158621335Y-86935000D01*
X158898574Y-86879853D01*
X159159727Y-86771680D01*
X159394759Y-86614637D01*
X159594637Y-86414759D01*
X159750000Y-86182241D01*
X159905363Y-86414759D01*
X160105241Y-86614637D01*
X160340273Y-86771680D01*
X160601426Y-86879853D01*
X160878665Y-86935000D01*
X161161335Y-86935000D01*
X161438574Y-86879853D01*
X161699727Y-86771680D01*
X161934759Y-86614637D01*
X162134637Y-86414759D01*
X162290000Y-86182241D01*
X162445363Y-86414759D01*
X162645241Y-86614637D01*
X162880273Y-86771680D01*
X163141426Y-86879853D01*
X163418665Y-86935000D01*
X163701335Y-86935000D01*
X163978574Y-86879853D01*
X164239727Y-86771680D01*
X164474759Y-86614637D01*
X164674637Y-86414759D01*
X164830000Y-86182241D01*
X164985363Y-86414759D01*
X165185241Y-86614637D01*
X165420273Y-86771680D01*
X165681426Y-86879853D01*
X165958665Y-86935000D01*
X166241335Y-86935000D01*
X166518574Y-86879853D01*
X166779727Y-86771680D01*
X167014759Y-86614637D01*
X167214637Y-86414759D01*
X167370000Y-86182241D01*
X167525363Y-86414759D01*
X167725241Y-86614637D01*
X167960273Y-86771680D01*
X168221426Y-86879853D01*
X168498665Y-86935000D01*
X168781335Y-86935000D01*
X169058574Y-86879853D01*
X169319727Y-86771680D01*
X169554759Y-86614637D01*
X169754637Y-86414759D01*
X169910000Y-86182241D01*
X170065363Y-86414759D01*
X170265241Y-86614637D01*
X170500273Y-86771680D01*
X170761426Y-86879853D01*
X171038665Y-86935000D01*
X171321335Y-86935000D01*
X171598574Y-86879853D01*
X171859727Y-86771680D01*
X172094759Y-86614637D01*
X172294637Y-86414759D01*
X172450000Y-86182241D01*
X172605363Y-86414759D01*
X172805241Y-86614637D01*
X173040273Y-86771680D01*
X173301426Y-86879853D01*
X173578665Y-86935000D01*
X173861335Y-86935000D01*
X174138574Y-86879853D01*
X174399727Y-86771680D01*
X174634759Y-86614637D01*
X174834637Y-86414759D01*
X174991680Y-86179727D01*
X175099853Y-85918574D01*
X175155000Y-85641335D01*
X175155000Y-85358665D01*
X175099853Y-85081426D01*
X174991680Y-84820273D01*
X174834637Y-84585241D01*
X174634759Y-84385363D01*
X174399727Y-84228320D01*
X174138574Y-84120147D01*
X173861335Y-84065000D01*
X173578665Y-84065000D01*
X173301426Y-84120147D01*
X173040273Y-84228320D01*
X172805241Y-84385363D01*
X172605363Y-84585241D01*
X172450000Y-84817759D01*
X172294637Y-84585241D01*
X172094759Y-84385363D01*
X171859727Y-84228320D01*
X171598574Y-84120147D01*
X171321335Y-84065000D01*
X171038665Y-84065000D01*
X170761426Y-84120147D01*
X170500273Y-84228320D01*
X170265241Y-84385363D01*
X170065363Y-84585241D01*
X169910000Y-84817759D01*
X169754637Y-84585241D01*
X169554759Y-84385363D01*
X169319727Y-84228320D01*
X169058574Y-84120147D01*
X168781335Y-84065000D01*
X168498665Y-84065000D01*
X168221426Y-84120147D01*
X167960273Y-84228320D01*
X167725241Y-84385363D01*
X167525363Y-84585241D01*
X167370000Y-84817759D01*
X167214637Y-84585241D01*
X167014759Y-84385363D01*
X166779727Y-84228320D01*
X166518574Y-84120147D01*
X166241335Y-84065000D01*
X165958665Y-84065000D01*
X165681426Y-84120147D01*
X165420273Y-84228320D01*
X165185241Y-84385363D01*
X164985363Y-84585241D01*
X164830000Y-84817759D01*
X164674637Y-84585241D01*
X164474759Y-84385363D01*
X164239727Y-84228320D01*
X163978574Y-84120147D01*
X163701335Y-84065000D01*
X163418665Y-84065000D01*
X163141426Y-84120147D01*
X162880273Y-84228320D01*
X162645241Y-84385363D01*
X162445363Y-84585241D01*
X162290000Y-84817759D01*
X162134637Y-84585241D01*
X161934759Y-84385363D01*
X161699727Y-84228320D01*
X161438574Y-84120147D01*
X161161335Y-84065000D01*
X160878665Y-84065000D01*
X160601426Y-84120147D01*
X160340273Y-84228320D01*
X160105241Y-84385363D01*
X159905363Y-84585241D01*
X159750000Y-84817759D01*
X159594637Y-84585241D01*
X159394759Y-84385363D01*
X159159727Y-84228320D01*
X158898574Y-84120147D01*
X158621335Y-84065000D01*
X158338665Y-84065000D01*
X158061426Y-84120147D01*
X157800273Y-84228320D01*
X157565241Y-84385363D01*
X157365363Y-84585241D01*
X157210000Y-84817759D01*
X157054637Y-84585241D01*
X156854759Y-84385363D01*
X156619727Y-84228320D01*
X156358574Y-84120147D01*
X156081335Y-84065000D01*
X155798665Y-84065000D01*
X155521426Y-84120147D01*
X155260273Y-84228320D01*
X155025241Y-84385363D01*
X154825363Y-84585241D01*
X154670000Y-84817759D01*
X154514637Y-84585241D01*
X154314759Y-84385363D01*
X154079727Y-84228320D01*
X153818574Y-84120147D01*
X153541335Y-84065000D01*
X153258665Y-84065000D01*
X152981426Y-84120147D01*
X152720273Y-84228320D01*
X152485241Y-84385363D01*
X152285363Y-84585241D01*
X152130000Y-84817759D01*
X151974637Y-84585241D01*
X151774759Y-84385363D01*
X151539727Y-84228320D01*
X151278574Y-84120147D01*
X151001335Y-84065000D01*
X150718665Y-84065000D01*
X150441426Y-84120147D01*
X150180273Y-84228320D01*
X149945241Y-84385363D01*
X149745363Y-84585241D01*
X149590000Y-84817759D01*
X149434637Y-84585241D01*
X149234759Y-84385363D01*
X148999727Y-84228320D01*
X148738574Y-84120147D01*
X148461335Y-84065000D01*
X148178665Y-84065000D01*
X147901426Y-84120147D01*
X147640273Y-84228320D01*
X147405241Y-84385363D01*
X147205363Y-84585241D01*
X147050000Y-84817759D01*
X146894637Y-84585241D01*
X146694759Y-84385363D01*
X146459727Y-84228320D01*
X146198574Y-84120147D01*
X145921335Y-84065000D01*
X145638665Y-84065000D01*
X145361426Y-84120147D01*
X145100273Y-84228320D01*
X144865241Y-84385363D01*
X144665363Y-84585241D01*
X144510000Y-84817759D01*
X144354637Y-84585241D01*
X144154759Y-84385363D01*
X143919727Y-84228320D01*
X143658574Y-84120147D01*
X143381335Y-84065000D01*
X143098665Y-84065000D01*
X142821426Y-84120147D01*
X142560273Y-84228320D01*
X142325241Y-84385363D01*
X142125363Y-84585241D01*
X141970000Y-84817759D01*
X141814637Y-84585241D01*
X141614759Y-84385363D01*
X141379727Y-84228320D01*
X141118574Y-84120147D01*
X140841335Y-84065000D01*
X140558665Y-84065000D01*
X140281426Y-84120147D01*
X140020273Y-84228320D01*
X139785241Y-84385363D01*
X139585363Y-84585241D01*
X139430000Y-84817759D01*
X139274637Y-84585241D01*
X139074759Y-84385363D01*
X138839727Y-84228320D01*
X138578574Y-84120147D01*
X138301335Y-84065000D01*
X138018665Y-84065000D01*
X137741426Y-84120147D01*
X137480273Y-84228320D01*
X137245241Y-84385363D01*
X137045363Y-84585241D01*
X136890000Y-84817759D01*
X136734637Y-84585241D01*
X136534759Y-84385363D01*
X136299727Y-84228320D01*
X136038574Y-84120147D01*
X135761335Y-84065000D01*
X135478665Y-84065000D01*
X135201426Y-84120147D01*
X134940273Y-84228320D01*
X134705241Y-84385363D01*
X134505363Y-84585241D01*
X134350000Y-84817759D01*
X134194637Y-84585241D01*
X133994759Y-84385363D01*
X133759727Y-84228320D01*
X133498574Y-84120147D01*
X133221335Y-84065000D01*
X132938665Y-84065000D01*
X132661426Y-84120147D01*
X132400273Y-84228320D01*
X132165241Y-84385363D01*
X131965363Y-84585241D01*
X131810000Y-84817759D01*
X131654637Y-84585241D01*
X131454759Y-84385363D01*
X131219727Y-84228320D01*
X130958574Y-84120147D01*
X130681335Y-84065000D01*
X130398665Y-84065000D01*
X130121426Y-84120147D01*
X129860273Y-84228320D01*
X129625241Y-84385363D01*
X129426643Y-84583961D01*
X129425812Y-84575518D01*
X129389502Y-84455820D01*
X129330537Y-84345506D01*
X129251185Y-84248815D01*
X129154494Y-84169463D01*
X129044180Y-84110498D01*
X128924482Y-84074188D01*
X128800000Y-84061928D01*
X127200000Y-84061928D01*
X127075518Y-84074188D01*
X126955820Y-84110498D01*
X126845506Y-84169463D01*
X126748815Y-84248815D01*
X126669463Y-84345506D01*
X126610498Y-84455820D01*
X126574188Y-84575518D01*
X126561928Y-84700000D01*
X119762000Y-84700000D01*
X119762000Y-73992000D01*
X184278000Y-73992000D01*
X184278000Y-130253000D01*
%TA.AperFunction,Conductor*%
D18*
G36*
X184278000Y-130253000D02*
G01*
X167340000Y-130253000D01*
X167340000Y-129737323D01*
X167343676Y-129700000D01*
X167340000Y-129662677D01*
X167340000Y-129662667D01*
X167329003Y-129551014D01*
X167285546Y-129407753D01*
X167241327Y-129325026D01*
X167214974Y-129275723D01*
X167143799Y-129188997D01*
X167120001Y-129159999D01*
X167091003Y-129136201D01*
X161670000Y-123715199D01*
X161670000Y-119878113D01*
X161723411Y-119855990D01*
X161966632Y-119693475D01*
X162173475Y-119486632D01*
X162290000Y-119312240D01*
X162406525Y-119486632D01*
X162613368Y-119693475D01*
X162856589Y-119855990D01*
X163126842Y-119967932D01*
X163413740Y-120025000D01*
X163706260Y-120025000D01*
X163993158Y-119967932D01*
X164263411Y-119855990D01*
X164506632Y-119693475D01*
X164713475Y-119486632D01*
X164830000Y-119312240D01*
X164946525Y-119486632D01*
X165153368Y-119693475D01*
X165396589Y-119855990D01*
X165666842Y-119967932D01*
X165953740Y-120025000D01*
X166246260Y-120025000D01*
X166533158Y-119967932D01*
X166803411Y-119855990D01*
X167046632Y-119693475D01*
X167253475Y-119486632D01*
X167370000Y-119312240D01*
X167486525Y-119486632D01*
X167693368Y-119693475D01*
X167936589Y-119855990D01*
X168206842Y-119967932D01*
X168493740Y-120025000D01*
X168786260Y-120025000D01*
X169073158Y-119967932D01*
X169343411Y-119855990D01*
X169586632Y-119693475D01*
X169793475Y-119486632D01*
X169910000Y-119312240D01*
X170026525Y-119486632D01*
X170233368Y-119693475D01*
X170476589Y-119855990D01*
X170746842Y-119967932D01*
X171033740Y-120025000D01*
X171326260Y-120025000D01*
X171613158Y-119967932D01*
X171883411Y-119855990D01*
X172126632Y-119693475D01*
X172333475Y-119486632D01*
X172450000Y-119312240D01*
X172566525Y-119486632D01*
X172773368Y-119693475D01*
X173016589Y-119855990D01*
X173286842Y-119967932D01*
X173573740Y-120025000D01*
X173866260Y-120025000D01*
X174153158Y-119967932D01*
X174423411Y-119855990D01*
X174666632Y-119693475D01*
X174873475Y-119486632D01*
X174995195Y-119304466D01*
X175064822Y-119421355D01*
X175259731Y-119637588D01*
X175493080Y-119811641D01*
X175755901Y-119936825D01*
X175903110Y-119981476D01*
X176133000Y-119860155D01*
X176133000Y-118667000D01*
X176387000Y-118667000D01*
X176387000Y-119860155D01*
X176616890Y-119981476D01*
X176764099Y-119936825D01*
X177026920Y-119811641D01*
X177260269Y-119637588D01*
X177455178Y-119421355D01*
X177604157Y-119171252D01*
X177701481Y-118896891D01*
X177580814Y-118667000D01*
X176387000Y-118667000D01*
X176133000Y-118667000D01*
X176113000Y-118667000D01*
X176113000Y-118413000D01*
X176133000Y-118413000D01*
X176133000Y-118393000D01*
X176387000Y-118393000D01*
X176387000Y-118413000D01*
X177580814Y-118413000D01*
X177701481Y-118183109D01*
X177604157Y-117908748D01*
X177455178Y-117658645D01*
X177260269Y-117442412D01*
X177030594Y-117271100D01*
X177206632Y-117153475D01*
X177413475Y-116946632D01*
X177575990Y-116703411D01*
X177687932Y-116433158D01*
X177745000Y-116146260D01*
X177745000Y-115853740D01*
X177687932Y-115566842D01*
X177575990Y-115296589D01*
X177413475Y-115053368D01*
X177206632Y-114846525D01*
X176963411Y-114684010D01*
X176693158Y-114572068D01*
X176406260Y-114515000D01*
X176113740Y-114515000D01*
X175826842Y-114572068D01*
X175556589Y-114684010D01*
X175313368Y-114846525D01*
X175106525Y-115053368D01*
X174990000Y-115227760D01*
X174873475Y-115053368D01*
X174666632Y-114846525D01*
X174423411Y-114684010D01*
X174153158Y-114572068D01*
X173866260Y-114515000D01*
X173573740Y-114515000D01*
X173286842Y-114572068D01*
X173016589Y-114684010D01*
X172773368Y-114846525D01*
X172566525Y-115053368D01*
X172450000Y-115227760D01*
X172333475Y-115053368D01*
X172126632Y-114846525D01*
X171883411Y-114684010D01*
X171613158Y-114572068D01*
X171326260Y-114515000D01*
X171033740Y-114515000D01*
X170746842Y-114572068D01*
X170476589Y-114684010D01*
X170233368Y-114846525D01*
X170026525Y-115053368D01*
X169910000Y-115227760D01*
X169793475Y-115053368D01*
X169586632Y-114846525D01*
X169343411Y-114684010D01*
X169073158Y-114572068D01*
X168786260Y-114515000D01*
X168493740Y-114515000D01*
X168206842Y-114572068D01*
X167936589Y-114684010D01*
X167693368Y-114846525D01*
X167486525Y-115053368D01*
X167370000Y-115227760D01*
X167253475Y-115053368D01*
X167046632Y-114846525D01*
X166803411Y-114684010D01*
X166533158Y-114572068D01*
X166246260Y-114515000D01*
X165953740Y-114515000D01*
X165666842Y-114572068D01*
X165396589Y-114684010D01*
X165153368Y-114846525D01*
X164946525Y-115053368D01*
X164830000Y-115227760D01*
X164713475Y-115053368D01*
X164506632Y-114846525D01*
X164263411Y-114684010D01*
X163993158Y-114572068D01*
X163706260Y-114515000D01*
X163413740Y-114515000D01*
X163126842Y-114572068D01*
X162856589Y-114684010D01*
X162613368Y-114846525D01*
X162406525Y-115053368D01*
X162290000Y-115227760D01*
X162173475Y-115053368D01*
X161966632Y-114846525D01*
X161723411Y-114684010D01*
X161453158Y-114572068D01*
X161166260Y-114515000D01*
X160873740Y-114515000D01*
X160586842Y-114572068D01*
X160316589Y-114684010D01*
X160073368Y-114846525D01*
X159866525Y-115053368D01*
X159750000Y-115227760D01*
X159633475Y-115053368D01*
X159426632Y-114846525D01*
X159183411Y-114684010D01*
X158913158Y-114572068D01*
X158626260Y-114515000D01*
X158333740Y-114515000D01*
X158046842Y-114572068D01*
X157776589Y-114684010D01*
X157533368Y-114846525D01*
X157326525Y-115053368D01*
X157210000Y-115227760D01*
X157093475Y-115053368D01*
X156886632Y-114846525D01*
X156643411Y-114684010D01*
X156373158Y-114572068D01*
X156086260Y-114515000D01*
X155793740Y-114515000D01*
X155506842Y-114572068D01*
X155236589Y-114684010D01*
X154993368Y-114846525D01*
X154786525Y-115053368D01*
X154670000Y-115227760D01*
X154553475Y-115053368D01*
X154346632Y-114846525D01*
X154103411Y-114684010D01*
X153833158Y-114572068D01*
X153546260Y-114515000D01*
X153253740Y-114515000D01*
X152966842Y-114572068D01*
X152696589Y-114684010D01*
X152453368Y-114846525D01*
X152246525Y-115053368D01*
X152130000Y-115227760D01*
X152013475Y-115053368D01*
X151806632Y-114846525D01*
X151563411Y-114684010D01*
X151293158Y-114572068D01*
X151006260Y-114515000D01*
X150713740Y-114515000D01*
X150426842Y-114572068D01*
X150156589Y-114684010D01*
X149913368Y-114846525D01*
X149706525Y-115053368D01*
X149590000Y-115227760D01*
X149473475Y-115053368D01*
X149266632Y-114846525D01*
X149023411Y-114684010D01*
X148753158Y-114572068D01*
X148466260Y-114515000D01*
X148173740Y-114515000D01*
X147886842Y-114572068D01*
X147616589Y-114684010D01*
X147373368Y-114846525D01*
X147166525Y-115053368D01*
X147050000Y-115227760D01*
X146933475Y-115053368D01*
X146726632Y-114846525D01*
X146483411Y-114684010D01*
X146213158Y-114572068D01*
X145926260Y-114515000D01*
X145633740Y-114515000D01*
X145346842Y-114572068D01*
X145076589Y-114684010D01*
X144833368Y-114846525D01*
X144626525Y-115053368D01*
X144510000Y-115227760D01*
X144393475Y-115053368D01*
X144186632Y-114846525D01*
X143943411Y-114684010D01*
X143673158Y-114572068D01*
X143386260Y-114515000D01*
X143093740Y-114515000D01*
X142806842Y-114572068D01*
X142536589Y-114684010D01*
X142293368Y-114846525D01*
X142086525Y-115053368D01*
X141970000Y-115227760D01*
X141853475Y-115053368D01*
X141646632Y-114846525D01*
X141403411Y-114684010D01*
X141133158Y-114572068D01*
X140846260Y-114515000D01*
X140553740Y-114515000D01*
X140266842Y-114572068D01*
X139996589Y-114684010D01*
X139753368Y-114846525D01*
X139546525Y-115053368D01*
X139430000Y-115227760D01*
X139313475Y-115053368D01*
X139106632Y-114846525D01*
X138863411Y-114684010D01*
X138593158Y-114572068D01*
X138306260Y-114515000D01*
X138013740Y-114515000D01*
X137726842Y-114572068D01*
X137456589Y-114684010D01*
X137213368Y-114846525D01*
X137006525Y-115053368D01*
X136890000Y-115227760D01*
X136773475Y-115053368D01*
X136566632Y-114846525D01*
X136323411Y-114684010D01*
X136053158Y-114572068D01*
X135766260Y-114515000D01*
X135473740Y-114515000D01*
X135186842Y-114572068D01*
X134916589Y-114684010D01*
X134673368Y-114846525D01*
X134466525Y-115053368D01*
X134350000Y-115227760D01*
X134233475Y-115053368D01*
X134026632Y-114846525D01*
X133783411Y-114684010D01*
X133513158Y-114572068D01*
X133226260Y-114515000D01*
X132933740Y-114515000D01*
X132646842Y-114572068D01*
X132376589Y-114684010D01*
X132133368Y-114846525D01*
X131926525Y-115053368D01*
X131810000Y-115227760D01*
X131693475Y-115053368D01*
X131486632Y-114846525D01*
X131243411Y-114684010D01*
X130973158Y-114572068D01*
X130686260Y-114515000D01*
X130393740Y-114515000D01*
X130106842Y-114572068D01*
X129836589Y-114684010D01*
X129593368Y-114846525D01*
X129461513Y-114978380D01*
X129439502Y-114905820D01*
X129380537Y-114795506D01*
X129301185Y-114698815D01*
X129204494Y-114619463D01*
X129094180Y-114560498D01*
X128974482Y-114524188D01*
X128850000Y-114511928D01*
X127150000Y-114511928D01*
X127025518Y-114524188D01*
X126905820Y-114560498D01*
X126795506Y-114619463D01*
X126698815Y-114698815D01*
X126619463Y-114795506D01*
X126560498Y-114905820D01*
X126524188Y-115025518D01*
X126511928Y-115150000D01*
X126511928Y-116850000D01*
X126524188Y-116974482D01*
X126560498Y-117094180D01*
X126619463Y-117204494D01*
X126698815Y-117301185D01*
X126795506Y-117380537D01*
X126905820Y-117439502D01*
X126978380Y-117461513D01*
X126846525Y-117593368D01*
X126684010Y-117836589D01*
X126572068Y-118106842D01*
X126515000Y-118393740D01*
X126515000Y-118686260D01*
X126572068Y-118973158D01*
X126684010Y-119243411D01*
X126846525Y-119486632D01*
X127053368Y-119693475D01*
X127296589Y-119855990D01*
X127566842Y-119967932D01*
X127853740Y-120025000D01*
X128146260Y-120025000D01*
X128433158Y-119967932D01*
X128703411Y-119855990D01*
X128946632Y-119693475D01*
X129153475Y-119486632D01*
X129270000Y-119312240D01*
X129386525Y-119486632D01*
X129593368Y-119693475D01*
X129836589Y-119855990D01*
X130106842Y-119967932D01*
X130393740Y-120025000D01*
X130686260Y-120025000D01*
X130973158Y-119967932D01*
X131243411Y-119855990D01*
X131486632Y-119693475D01*
X131693475Y-119486632D01*
X131810000Y-119312240D01*
X131926525Y-119486632D01*
X132133368Y-119693475D01*
X132210001Y-119744679D01*
X132210000Y-127802678D01*
X132206324Y-127840000D01*
X132210000Y-127877322D01*
X132210000Y-127877332D01*
X132220997Y-127988985D01*
X132261042Y-128120997D01*
X132264454Y-128132246D01*
X132335026Y-128264276D01*
X132374740Y-128312667D01*
X132429999Y-128380001D01*
X132459003Y-128403804D01*
X134308198Y-130253000D01*
X119762000Y-130253000D01*
X119762000Y-109838967D01*
X169865000Y-109838967D01*
X169865000Y-110161033D01*
X169927832Y-110476912D01*
X170051082Y-110774463D01*
X170230013Y-111042252D01*
X170457748Y-111269987D01*
X170725537Y-111448918D01*
X171023088Y-111572168D01*
X171338967Y-111635000D01*
X171661033Y-111635000D01*
X171976912Y-111572168D01*
X172274463Y-111448918D01*
X172542252Y-111269987D01*
X172769987Y-111042252D01*
X172948918Y-110774463D01*
X173072168Y-110476912D01*
X173135000Y-110161033D01*
X173135000Y-109838967D01*
X173072168Y-109523088D01*
X172948918Y-109225537D01*
X172769987Y-108957748D01*
X172542252Y-108730013D01*
X172274463Y-108551082D01*
X171976912Y-108427832D01*
X171661033Y-108365000D01*
X171338967Y-108365000D01*
X171023088Y-108427832D01*
X170725537Y-108551082D01*
X170457748Y-108730013D01*
X170230013Y-108957748D01*
X170051082Y-109225537D01*
X169927832Y-109523088D01*
X169865000Y-109838967D01*
X119762000Y-109838967D01*
X119762000Y-98424080D01*
X121925525Y-98424080D01*
X122009208Y-98678261D01*
X122281775Y-98809158D01*
X122574642Y-98884365D01*
X122876553Y-98900991D01*
X123175907Y-98858397D01*
X123461199Y-98758222D01*
X123610792Y-98678261D01*
X123694475Y-98424080D01*
X122810000Y-97539605D01*
X121925525Y-98424080D01*
X119762000Y-98424080D01*
X119762000Y-97426553D01*
X121269009Y-97426553D01*
X121311603Y-97725907D01*
X121411778Y-98011199D01*
X121491739Y-98160792D01*
X121745920Y-98244475D01*
X122630395Y-97360000D01*
X122989605Y-97360000D01*
X123874080Y-98244475D01*
X124128261Y-98160792D01*
X124259158Y-97888225D01*
X124334365Y-97595358D01*
X124350991Y-97293447D01*
X124308397Y-96994093D01*
X124253928Y-96838967D01*
X130865000Y-96838967D01*
X130865000Y-97161033D01*
X130927832Y-97476912D01*
X131051082Y-97774463D01*
X131230013Y-98042252D01*
X131457748Y-98269987D01*
X131725537Y-98448918D01*
X132023088Y-98572168D01*
X132338967Y-98635000D01*
X132661033Y-98635000D01*
X132976912Y-98572168D01*
X133274463Y-98448918D01*
X133542252Y-98269987D01*
X133769987Y-98042252D01*
X133948918Y-97774463D01*
X134072168Y-97476912D01*
X134135000Y-97161033D01*
X134135000Y-96838967D01*
X134072168Y-96523088D01*
X133948918Y-96225537D01*
X133769987Y-95957748D01*
X133542252Y-95730013D01*
X133274463Y-95551082D01*
X132976912Y-95427832D01*
X132661033Y-95365000D01*
X132338967Y-95365000D01*
X132023088Y-95427832D01*
X131725537Y-95551082D01*
X131457748Y-95730013D01*
X131230013Y-95957748D01*
X131051082Y-96225537D01*
X130927832Y-96523088D01*
X130865000Y-96838967D01*
X124253928Y-96838967D01*
X124208222Y-96708801D01*
X124128261Y-96559208D01*
X123874080Y-96475525D01*
X122989605Y-97360000D01*
X122630395Y-97360000D01*
X121745920Y-96475525D01*
X121491739Y-96559208D01*
X121360842Y-96831775D01*
X121285635Y-97124642D01*
X121269009Y-97426553D01*
X119762000Y-97426553D01*
X119762000Y-96295920D01*
X121925525Y-96295920D01*
X122810000Y-97180395D01*
X123694475Y-96295920D01*
X123610792Y-96041739D01*
X123338225Y-95910842D01*
X123045358Y-95835635D01*
X122743447Y-95819009D01*
X122444093Y-95861603D01*
X122158801Y-95961778D01*
X122009208Y-96041739D01*
X121925525Y-96295920D01*
X119762000Y-96295920D01*
X119762000Y-91493816D01*
X121275000Y-91493816D01*
X121275000Y-91796184D01*
X121333989Y-92092743D01*
X121449701Y-92372095D01*
X121617688Y-92623505D01*
X121831495Y-92837312D01*
X122082905Y-93005299D01*
X122362257Y-93121011D01*
X122658816Y-93180000D01*
X122961184Y-93180000D01*
X123257743Y-93121011D01*
X123537095Y-93005299D01*
X123788505Y-92837312D01*
X124002312Y-92623505D01*
X124170299Y-92372095D01*
X124286011Y-92092743D01*
X124345000Y-91796184D01*
X124345000Y-91493816D01*
X124286011Y-91197257D01*
X124170299Y-90917905D01*
X124002312Y-90666495D01*
X123788505Y-90452688D01*
X123537095Y-90284701D01*
X123257743Y-90168989D01*
X122961184Y-90110000D01*
X122658816Y-90110000D01*
X122362257Y-90168989D01*
X122082905Y-90284701D01*
X121831495Y-90452688D01*
X121617688Y-90666495D01*
X121449701Y-90917905D01*
X121333989Y-91197257D01*
X121275000Y-91493816D01*
X119762000Y-91493816D01*
X119762000Y-84700000D01*
X126561928Y-84700000D01*
X126561928Y-86300000D01*
X126574188Y-86424482D01*
X126610498Y-86544180D01*
X126669463Y-86654494D01*
X126748815Y-86751185D01*
X126845506Y-86830537D01*
X126955820Y-86889502D01*
X127075518Y-86925812D01*
X127200000Y-86938072D01*
X128800000Y-86938072D01*
X128924482Y-86925812D01*
X129044180Y-86889502D01*
X129154494Y-86830537D01*
X129251185Y-86751185D01*
X129330537Y-86654494D01*
X129389502Y-86544180D01*
X129425812Y-86424482D01*
X129426643Y-86416039D01*
X129625241Y-86614637D01*
X129860273Y-86771680D01*
X130121426Y-86879853D01*
X130398665Y-86935000D01*
X130681335Y-86935000D01*
X130958574Y-86879853D01*
X131219727Y-86771680D01*
X131454759Y-86614637D01*
X131654637Y-86414759D01*
X131810000Y-86182241D01*
X131965363Y-86414759D01*
X132165241Y-86614637D01*
X132400273Y-86771680D01*
X132661426Y-86879853D01*
X132938665Y-86935000D01*
X133221335Y-86935000D01*
X133498574Y-86879853D01*
X133759727Y-86771680D01*
X133994759Y-86614637D01*
X134194637Y-86414759D01*
X134350000Y-86182241D01*
X134505363Y-86414759D01*
X134705241Y-86614637D01*
X134940273Y-86771680D01*
X135201426Y-86879853D01*
X135478665Y-86935000D01*
X135761335Y-86935000D01*
X136038574Y-86879853D01*
X136299727Y-86771680D01*
X136534759Y-86614637D01*
X136734637Y-86414759D01*
X136890000Y-86182241D01*
X137045363Y-86414759D01*
X137245241Y-86614637D01*
X137480273Y-86771680D01*
X137741426Y-86879853D01*
X138018665Y-86935000D01*
X138301335Y-86935000D01*
X138578574Y-86879853D01*
X138839727Y-86771680D01*
X139074759Y-86614637D01*
X139274637Y-86414759D01*
X139430000Y-86182241D01*
X139585363Y-86414759D01*
X139785241Y-86614637D01*
X140020273Y-86771680D01*
X140281426Y-86879853D01*
X140558665Y-86935000D01*
X140841335Y-86935000D01*
X141118574Y-86879853D01*
X141379727Y-86771680D01*
X141614759Y-86614637D01*
X141814637Y-86414759D01*
X141970000Y-86182241D01*
X142125363Y-86414759D01*
X142325241Y-86614637D01*
X142560273Y-86771680D01*
X142821426Y-86879853D01*
X143098665Y-86935000D01*
X143381335Y-86935000D01*
X143658574Y-86879853D01*
X143919727Y-86771680D01*
X144154759Y-86614637D01*
X144354637Y-86414759D01*
X144510000Y-86182241D01*
X144665363Y-86414759D01*
X144865241Y-86614637D01*
X145100273Y-86771680D01*
X145361426Y-86879853D01*
X145638665Y-86935000D01*
X145921335Y-86935000D01*
X146198574Y-86879853D01*
X146459727Y-86771680D01*
X146694759Y-86614637D01*
X146894637Y-86414759D01*
X147050000Y-86182241D01*
X147205363Y-86414759D01*
X147405241Y-86614637D01*
X147640273Y-86771680D01*
X147901426Y-86879853D01*
X148178665Y-86935000D01*
X148461335Y-86935000D01*
X148738574Y-86879853D01*
X148999727Y-86771680D01*
X149234759Y-86614637D01*
X149434637Y-86414759D01*
X149590000Y-86182241D01*
X149745363Y-86414759D01*
X149945241Y-86614637D01*
X150180273Y-86771680D01*
X150441426Y-86879853D01*
X150718665Y-86935000D01*
X151001335Y-86935000D01*
X151278574Y-86879853D01*
X151539727Y-86771680D01*
X151774759Y-86614637D01*
X151974637Y-86414759D01*
X152130000Y-86182241D01*
X152285363Y-86414759D01*
X152485241Y-86614637D01*
X152720273Y-86771680D01*
X152981426Y-86879853D01*
X153258665Y-86935000D01*
X153541335Y-86935000D01*
X153818574Y-86879853D01*
X154079727Y-86771680D01*
X154314759Y-86614637D01*
X154514637Y-86414759D01*
X154670000Y-86182241D01*
X154825363Y-86414759D01*
X155025241Y-86614637D01*
X155260273Y-86771680D01*
X155521426Y-86879853D01*
X155798665Y-86935000D01*
X156081335Y-86935000D01*
X156358574Y-86879853D01*
X156619727Y-86771680D01*
X156854759Y-86614637D01*
X157054637Y-86414759D01*
X157210000Y-86182241D01*
X157365363Y-86414759D01*
X157565241Y-86614637D01*
X157800273Y-86771680D01*
X158061426Y-86879853D01*
X158338665Y-86935000D01*
X158621335Y-86935000D01*
X158898574Y-86879853D01*
X159159727Y-86771680D01*
X159394759Y-86614637D01*
X159594637Y-86414759D01*
X159750000Y-86182241D01*
X159905363Y-86414759D01*
X160105241Y-86614637D01*
X160340273Y-86771680D01*
X160601426Y-86879853D01*
X160878665Y-86935000D01*
X161161335Y-86935000D01*
X161438574Y-86879853D01*
X161699727Y-86771680D01*
X161934759Y-86614637D01*
X162134637Y-86414759D01*
X162290000Y-86182241D01*
X162445363Y-86414759D01*
X162645241Y-86614637D01*
X162880273Y-86771680D01*
X163141426Y-86879853D01*
X163418665Y-86935000D01*
X163701335Y-86935000D01*
X163978574Y-86879853D01*
X164239727Y-86771680D01*
X164474759Y-86614637D01*
X164674637Y-86414759D01*
X164830000Y-86182241D01*
X164985363Y-86414759D01*
X165185241Y-86614637D01*
X165420273Y-86771680D01*
X165681426Y-86879853D01*
X165958665Y-86935000D01*
X166241335Y-86935000D01*
X166518574Y-86879853D01*
X166779727Y-86771680D01*
X167014759Y-86614637D01*
X167214637Y-86414759D01*
X167370000Y-86182241D01*
X167525363Y-86414759D01*
X167725241Y-86614637D01*
X167960273Y-86771680D01*
X168221426Y-86879853D01*
X168498665Y-86935000D01*
X168781335Y-86935000D01*
X169058574Y-86879853D01*
X169319727Y-86771680D01*
X169554759Y-86614637D01*
X169754637Y-86414759D01*
X169910000Y-86182241D01*
X170065363Y-86414759D01*
X170265241Y-86614637D01*
X170500273Y-86771680D01*
X170761426Y-86879853D01*
X171038665Y-86935000D01*
X171321335Y-86935000D01*
X171598574Y-86879853D01*
X171859727Y-86771680D01*
X172094759Y-86614637D01*
X172294637Y-86414759D01*
X172450000Y-86182241D01*
X172605363Y-86414759D01*
X172805241Y-86614637D01*
X173040273Y-86771680D01*
X173301426Y-86879853D01*
X173578665Y-86935000D01*
X173861335Y-86935000D01*
X174138574Y-86879853D01*
X174399727Y-86771680D01*
X174634759Y-86614637D01*
X174834637Y-86414759D01*
X174991680Y-86179727D01*
X175099853Y-85918574D01*
X175155000Y-85641335D01*
X175155000Y-85358665D01*
X175099853Y-85081426D01*
X174991680Y-84820273D01*
X174834637Y-84585241D01*
X174634759Y-84385363D01*
X174399727Y-84228320D01*
X174138574Y-84120147D01*
X173861335Y-84065000D01*
X173578665Y-84065000D01*
X173301426Y-84120147D01*
X173040273Y-84228320D01*
X172805241Y-84385363D01*
X172605363Y-84585241D01*
X172450000Y-84817759D01*
X172294637Y-84585241D01*
X172094759Y-84385363D01*
X171859727Y-84228320D01*
X171598574Y-84120147D01*
X171321335Y-84065000D01*
X171038665Y-84065000D01*
X170761426Y-84120147D01*
X170500273Y-84228320D01*
X170265241Y-84385363D01*
X170065363Y-84585241D01*
X169910000Y-84817759D01*
X169754637Y-84585241D01*
X169554759Y-84385363D01*
X169319727Y-84228320D01*
X169058574Y-84120147D01*
X168781335Y-84065000D01*
X168498665Y-84065000D01*
X168221426Y-84120147D01*
X167960273Y-84228320D01*
X167725241Y-84385363D01*
X167525363Y-84585241D01*
X167370000Y-84817759D01*
X167214637Y-84585241D01*
X167014759Y-84385363D01*
X166779727Y-84228320D01*
X166518574Y-84120147D01*
X166241335Y-84065000D01*
X165958665Y-84065000D01*
X165681426Y-84120147D01*
X165420273Y-84228320D01*
X165185241Y-84385363D01*
X164985363Y-84585241D01*
X164830000Y-84817759D01*
X164674637Y-84585241D01*
X164474759Y-84385363D01*
X164239727Y-84228320D01*
X163978574Y-84120147D01*
X163701335Y-84065000D01*
X163418665Y-84065000D01*
X163141426Y-84120147D01*
X162880273Y-84228320D01*
X162645241Y-84385363D01*
X162445363Y-84585241D01*
X162290000Y-84817759D01*
X162134637Y-84585241D01*
X161934759Y-84385363D01*
X161699727Y-84228320D01*
X161438574Y-84120147D01*
X161161335Y-84065000D01*
X160878665Y-84065000D01*
X160601426Y-84120147D01*
X160340273Y-84228320D01*
X160105241Y-84385363D01*
X159905363Y-84585241D01*
X159750000Y-84817759D01*
X159594637Y-84585241D01*
X159394759Y-84385363D01*
X159159727Y-84228320D01*
X158898574Y-84120147D01*
X158621335Y-84065000D01*
X158338665Y-84065000D01*
X158061426Y-84120147D01*
X157800273Y-84228320D01*
X157565241Y-84385363D01*
X157365363Y-84585241D01*
X157210000Y-84817759D01*
X157054637Y-84585241D01*
X156854759Y-84385363D01*
X156619727Y-84228320D01*
X156358574Y-84120147D01*
X156081335Y-84065000D01*
X155798665Y-84065000D01*
X155521426Y-84120147D01*
X155260273Y-84228320D01*
X155025241Y-84385363D01*
X154825363Y-84585241D01*
X154670000Y-84817759D01*
X154514637Y-84585241D01*
X154314759Y-84385363D01*
X154079727Y-84228320D01*
X153818574Y-84120147D01*
X153541335Y-84065000D01*
X153258665Y-84065000D01*
X152981426Y-84120147D01*
X152720273Y-84228320D01*
X152485241Y-84385363D01*
X152285363Y-84585241D01*
X152130000Y-84817759D01*
X151974637Y-84585241D01*
X151774759Y-84385363D01*
X151539727Y-84228320D01*
X151278574Y-84120147D01*
X151001335Y-84065000D01*
X150718665Y-84065000D01*
X150441426Y-84120147D01*
X150180273Y-84228320D01*
X149945241Y-84385363D01*
X149745363Y-84585241D01*
X149590000Y-84817759D01*
X149434637Y-84585241D01*
X149234759Y-84385363D01*
X148999727Y-84228320D01*
X148738574Y-84120147D01*
X148461335Y-84065000D01*
X148178665Y-84065000D01*
X147901426Y-84120147D01*
X147640273Y-84228320D01*
X147405241Y-84385363D01*
X147205363Y-84585241D01*
X147050000Y-84817759D01*
X146894637Y-84585241D01*
X146694759Y-84385363D01*
X146459727Y-84228320D01*
X146198574Y-84120147D01*
X145921335Y-84065000D01*
X145638665Y-84065000D01*
X145361426Y-84120147D01*
X145100273Y-84228320D01*
X144865241Y-84385363D01*
X144665363Y-84585241D01*
X144510000Y-84817759D01*
X144354637Y-84585241D01*
X144154759Y-84385363D01*
X143919727Y-84228320D01*
X143658574Y-84120147D01*
X143381335Y-84065000D01*
X143098665Y-84065000D01*
X142821426Y-84120147D01*
X142560273Y-84228320D01*
X142325241Y-84385363D01*
X142125363Y-84585241D01*
X141970000Y-84817759D01*
X141814637Y-84585241D01*
X141614759Y-84385363D01*
X141379727Y-84228320D01*
X141118574Y-84120147D01*
X140841335Y-84065000D01*
X140558665Y-84065000D01*
X140281426Y-84120147D01*
X140020273Y-84228320D01*
X139785241Y-84385363D01*
X139585363Y-84585241D01*
X139430000Y-84817759D01*
X139274637Y-84585241D01*
X139074759Y-84385363D01*
X138839727Y-84228320D01*
X138578574Y-84120147D01*
X138301335Y-84065000D01*
X138018665Y-84065000D01*
X137741426Y-84120147D01*
X137480273Y-84228320D01*
X137245241Y-84385363D01*
X137045363Y-84585241D01*
X136890000Y-84817759D01*
X136734637Y-84585241D01*
X136534759Y-84385363D01*
X136299727Y-84228320D01*
X136038574Y-84120147D01*
X135761335Y-84065000D01*
X135478665Y-84065000D01*
X135201426Y-84120147D01*
X134940273Y-84228320D01*
X134705241Y-84385363D01*
X134505363Y-84585241D01*
X134350000Y-84817759D01*
X134194637Y-84585241D01*
X133994759Y-84385363D01*
X133759727Y-84228320D01*
X133498574Y-84120147D01*
X133221335Y-84065000D01*
X132938665Y-84065000D01*
X132661426Y-84120147D01*
X132400273Y-84228320D01*
X132165241Y-84385363D01*
X131965363Y-84585241D01*
X131810000Y-84817759D01*
X131654637Y-84585241D01*
X131454759Y-84385363D01*
X131219727Y-84228320D01*
X130958574Y-84120147D01*
X130681335Y-84065000D01*
X130398665Y-84065000D01*
X130121426Y-84120147D01*
X129860273Y-84228320D01*
X129625241Y-84385363D01*
X129426643Y-84583961D01*
X129425812Y-84575518D01*
X129389502Y-84455820D01*
X129330537Y-84345506D01*
X129251185Y-84248815D01*
X129154494Y-84169463D01*
X129044180Y-84110498D01*
X128924482Y-84074188D01*
X128800000Y-84061928D01*
X127200000Y-84061928D01*
X127075518Y-84074188D01*
X126955820Y-84110498D01*
X126845506Y-84169463D01*
X126748815Y-84248815D01*
X126669463Y-84345506D01*
X126610498Y-84455820D01*
X126574188Y-84575518D01*
X126561928Y-84700000D01*
X119762000Y-84700000D01*
X119762000Y-73992000D01*
X184278000Y-73992000D01*
X184278000Y-130253000D01*
G37*
%TD.AperFunction*%
%TD*%
M02*
