%TF.GenerationSoftware,KiCad,Pcbnew,5.1.12-84ad8e8a86~92~ubuntu20.04.1*%
%TF.CreationDate,2022-08-11T21:58:25+09:00*%
%TF.ProjectId,Akashi-10,416b6173-6869-42d3-9130-2e6b69636164,rev?*%
%TF.SameCoordinates,Original*%
%TF.FileFunction,Copper,L1,Top*%
%TF.FilePolarity,Positive*%
%FSLAX46Y46*%
G04 Gerber Fmt 4.6, Leading zero omitted, Abs format (unit mm)*
G04 Created by KiCad (PCBNEW 5.1.12-84ad8e8a86~92~ubuntu20.04.1) date 2022-08-11 21:58:25*
%MOMM*%
%LPD*%
G01*
G04 APERTURE LIST*
%TA.AperFunction,ComponentPad*%
%ADD10C,1.600000*%
%TD*%
%TA.AperFunction,ComponentPad*%
%ADD11R,1.600000X1.600000*%
%TD*%
%TA.AperFunction,ComponentPad*%
%ADD12O,1.700000X1.700000*%
%TD*%
%TA.AperFunction,ComponentPad*%
%ADD13R,1.700000X1.700000*%
%TD*%
%TA.AperFunction,ComponentPad*%
%ADD14C,1.800000*%
%TD*%
%TA.AperFunction,Conductor*%
%ADD15C,0.250000*%
%TD*%
%TA.AperFunction,Conductor*%
%ADD16C,0.254000*%
%TD*%
%TA.AperFunction,Conductor*%
%ADD17C,0.100000*%
%TD*%
G04 APERTURE END LIST*
D10*
%TO.P,U1,19*%
%TO.N,Net-(J1-Pad2)*%
X173720000Y-85500000D03*
%TO.P,U1,18*%
%TO.N,Net-(J1-Pad35)*%
X171180000Y-85500000D03*
%TO.P,U1,17*%
%TO.N,Net-(J1-Pad33)*%
X168640000Y-85500000D03*
%TO.P,U1,16*%
%TO.N,Net-(J1-Pad31)*%
X166100000Y-85500000D03*
%TO.P,U1,15*%
%TO.N,Net-(J1-Pad29)*%
X163560000Y-85500000D03*
%TO.P,U1,14*%
%TO.N,Net-(J1-Pad27)*%
X161020000Y-85500000D03*
%TO.P,U1,13*%
%TO.N,Net-(J1-Pad25)*%
X158480000Y-85500000D03*
%TO.P,U1,12*%
%TO.N,Net-(J1-Pad23)*%
X155940000Y-85500000D03*
%TO.P,U1,11*%
%TO.N,Net-(J1-Pad21)*%
X153400000Y-85500000D03*
%TO.P,U1,10*%
%TO.N,Net-(J1-Pad19)*%
X150860000Y-85500000D03*
%TO.P,U1,9*%
%TO.N,Net-(J1-Pad17)*%
X148320000Y-85500000D03*
%TO.P,U1,8*%
%TO.N,Net-(J1-Pad15)*%
X145780000Y-85500000D03*
%TO.P,U1,7*%
%TO.N,Net-(J1-Pad13)*%
X143240000Y-85500000D03*
%TO.P,U1,6*%
%TO.N,Net-(J1-Pad11)*%
X140700000Y-85500000D03*
%TO.P,U1,5*%
%TO.N,Net-(J1-Pad9)*%
X138160000Y-85500000D03*
%TO.P,U1,4*%
%TO.N,Net-(J1-Pad7)*%
X135620000Y-85500000D03*
%TO.P,U1,3*%
%TO.N,Net-(J1-Pad5)*%
X133080000Y-85500000D03*
%TO.P,U1,2*%
%TO.N,Net-(J1-Pad3)*%
X130540000Y-85500000D03*
D11*
%TO.P,U1,1*%
%TO.N,Net-(J1-Pad1)*%
X128000000Y-85500000D03*
%TD*%
D12*
%TO.P,J1,40*%
%TO.N,GND*%
X176260000Y-118540000D03*
%TO.P,J1,39*%
%TO.N,Net-(J1-Pad39)*%
X176260000Y-116000000D03*
%TO.P,J1,38*%
%TO.N,+3V3*%
X173720000Y-118540000D03*
%TO.P,J1,37*%
%TO.N,Net-(J1-Pad2)*%
X173720000Y-116000000D03*
%TO.P,J1,36*%
%TO.N,Net-(J1-Pad36)*%
X171180000Y-118540000D03*
%TO.P,J1,35*%
%TO.N,Net-(J1-Pad35)*%
X171180000Y-116000000D03*
%TO.P,J1,34*%
%TO.N,Net-(J1-Pad34)*%
X168640000Y-118540000D03*
%TO.P,J1,33*%
%TO.N,Net-(J1-Pad33)*%
X168640000Y-116000000D03*
%TO.P,J1,32*%
%TO.N,Net-(J1-Pad32)*%
X166100000Y-118540000D03*
%TO.P,J1,31*%
%TO.N,Net-(J1-Pad31)*%
X166100000Y-116000000D03*
%TO.P,J1,30*%
%TO.N,Net-(J1-Pad30)*%
X163560000Y-118540000D03*
%TO.P,J1,29*%
%TO.N,Net-(J1-Pad29)*%
X163560000Y-116000000D03*
%TO.P,J1,28*%
%TO.N,Net-(J1-Pad28)*%
X161020000Y-118540000D03*
%TO.P,J1,27*%
%TO.N,Net-(J1-Pad27)*%
X161020000Y-116000000D03*
%TO.P,J1,26*%
%TO.N,Net-(J1-Pad26)*%
X158480000Y-118540000D03*
%TO.P,J1,25*%
%TO.N,Net-(J1-Pad25)*%
X158480000Y-116000000D03*
%TO.P,J1,24*%
%TO.N,Net-(J1-Pad24)*%
X155940000Y-118540000D03*
%TO.P,J1,23*%
%TO.N,Net-(J1-Pad23)*%
X155940000Y-116000000D03*
%TO.P,J1,22*%
%TO.N,Net-(J1-Pad22)*%
X153400000Y-118540000D03*
%TO.P,J1,21*%
%TO.N,Net-(J1-Pad21)*%
X153400000Y-116000000D03*
%TO.P,J1,20*%
%TO.N,Net-(J1-Pad20)*%
X150860000Y-118540000D03*
%TO.P,J1,19*%
%TO.N,Net-(J1-Pad19)*%
X150860000Y-116000000D03*
%TO.P,J1,18*%
%TO.N,Net-(J1-Pad18)*%
X148320000Y-118540000D03*
%TO.P,J1,17*%
%TO.N,Net-(J1-Pad17)*%
X148320000Y-116000000D03*
%TO.P,J1,16*%
%TO.N,Net-(J1-Pad16)*%
X145780000Y-118540000D03*
%TO.P,J1,15*%
%TO.N,Net-(J1-Pad15)*%
X145780000Y-116000000D03*
%TO.P,J1,14*%
%TO.N,Net-(J1-Pad14)*%
X143240000Y-118540000D03*
%TO.P,J1,13*%
%TO.N,Net-(J1-Pad13)*%
X143240000Y-116000000D03*
%TO.P,J1,12*%
%TO.N,Net-(J1-Pad12)*%
X140700000Y-118540000D03*
%TO.P,J1,11*%
%TO.N,Net-(J1-Pad11)*%
X140700000Y-116000000D03*
%TO.P,J1,10*%
%TO.N,Net-(J1-Pad10)*%
X138160000Y-118540000D03*
%TO.P,J1,9*%
%TO.N,Net-(J1-Pad9)*%
X138160000Y-116000000D03*
%TO.P,J1,8*%
%TO.N,Net-(J1-Pad8)*%
X135620000Y-118540000D03*
%TO.P,J1,7*%
%TO.N,Net-(J1-Pad7)*%
X135620000Y-116000000D03*
%TO.P,J1,6*%
%TO.N,Net-(J1-Pad6)*%
X133080000Y-118540000D03*
%TO.P,J1,5*%
%TO.N,Net-(J1-Pad5)*%
X133080000Y-116000000D03*
%TO.P,J1,4*%
%TO.N,Net-(J1-Pad4)*%
X130540000Y-118540000D03*
%TO.P,J1,3*%
%TO.N,Net-(J1-Pad3)*%
X130540000Y-116000000D03*
%TO.P,J1,2*%
%TO.N,Net-(J1-Pad2)*%
X128000000Y-118540000D03*
D13*
%TO.P,J1,1*%
%TO.N,Net-(J1-Pad1)*%
X128000000Y-116000000D03*
%TD*%
D14*
%TO.P,TP2,1*%
%TO.N,+3V3*%
X122810000Y-91645000D03*
%TD*%
%TO.P,TP1,1*%
%TO.N,GND*%
X122810000Y-97360000D03*
%TD*%
D15*
%TO.N,Net-(J1-Pad2)*%
X173720000Y-85500000D02*
X173720000Y-115665000D01*
X173720000Y-115665000D02*
X173610000Y-115775000D01*
%TO.N,Net-(J1-Pad35)*%
X171180000Y-116000000D02*
X171180000Y-113980000D01*
X171180000Y-113980000D02*
X169165000Y-111965000D01*
X169165000Y-111965000D02*
X169165000Y-108155000D01*
X169165000Y-108155000D02*
X171070000Y-106250000D01*
X171070000Y-106250000D02*
X171070000Y-85930000D01*
%TO.N,Net-(J1-Pad33)*%
X168640000Y-116000000D02*
X168640000Y-113345000D01*
X168640000Y-113345000D02*
X167895000Y-112600000D01*
X167895000Y-112600000D02*
X167895000Y-106885000D01*
X167895000Y-106885000D02*
X168530000Y-106250000D01*
X168530000Y-106250000D02*
X168530000Y-85295000D01*
%TO.N,Net-(J1-Pad31)*%
X166100000Y-116000000D02*
X166100000Y-86040000D01*
X166100000Y-86040000D02*
X165990000Y-85930000D01*
%TO.N,Net-(J1-Pad29)*%
X163560000Y-85500000D02*
X163560000Y-115665000D01*
X163560000Y-115665000D02*
X163450000Y-115775000D01*
%TO.N,Net-(J1-Pad27)*%
X161020000Y-85500000D02*
X161020000Y-115665000D01*
X161020000Y-115665000D02*
X160910000Y-115775000D01*
%TO.N,Net-(J1-Pad25)*%
X158480000Y-85500000D02*
X158480000Y-115665000D01*
X158480000Y-115665000D02*
X158370000Y-115775000D01*
%TO.N,Net-(J1-Pad23)*%
X155940000Y-85500000D02*
X155940000Y-115665000D01*
X155940000Y-115665000D02*
X155830000Y-115775000D01*
%TO.N,Net-(J1-Pad21)*%
X153400000Y-85500000D02*
X153400000Y-116300000D01*
X153400000Y-116300000D02*
X153290000Y-116190000D01*
X153290000Y-116190000D02*
X153290000Y-115775000D01*
%TO.N,Net-(J1-Pad19)*%
X150860000Y-116000000D02*
X150860000Y-86040000D01*
X150860000Y-86040000D02*
X150750000Y-85930000D01*
%TO.N,Net-(J1-Pad17)*%
X148320000Y-116000000D02*
X148320000Y-86040000D01*
X148320000Y-86040000D02*
X148210000Y-85930000D01*
%TO.N,Net-(J1-Pad15)*%
X145780000Y-85500000D02*
X145780000Y-116300000D01*
X145780000Y-116300000D02*
X145670000Y-116410000D01*
%TO.N,Net-(J1-Pad13)*%
X143240000Y-85500000D02*
X143240000Y-116300000D01*
X143240000Y-116300000D02*
X143130000Y-116410000D01*
X143240000Y-116000000D02*
X143240000Y-116300000D01*
%TO.N,Net-(J1-Pad11)*%
X140700000Y-116000000D02*
X140700000Y-86040000D01*
X140700000Y-86040000D02*
X140590000Y-85930000D01*
%TO.N,Net-(J1-Pad9)*%
X138160000Y-85500000D02*
X138160000Y-116300000D01*
X138160000Y-116300000D02*
X138050000Y-116410000D01*
X138160000Y-116000000D02*
X138160000Y-116300000D01*
%TO.N,Net-(J1-Pad7)*%
X135620000Y-116000000D02*
X135620000Y-86040000D01*
X135620000Y-86040000D02*
X135510000Y-85930000D01*
%TO.N,Net-(J1-Pad5)*%
X133080000Y-116000000D02*
X133080000Y-100010000D01*
X133080000Y-100010000D02*
X134240000Y-98850000D01*
X133080000Y-85500000D02*
X133080000Y-93440000D01*
X133080000Y-93440000D02*
X134240000Y-94600000D01*
X134240000Y-94600000D02*
X134240000Y-96090000D01*
X134240000Y-96090000D02*
X134240000Y-94820000D01*
X134240000Y-98850000D02*
X134240000Y-96090000D01*
%TO.N,Net-(J1-Pad3)*%
X130540000Y-85500000D02*
X130540000Y-116300000D01*
X130540000Y-116300000D02*
X130430000Y-116410000D01*
%TO.N,Net-(J1-Pad1)*%
X128000000Y-116000000D02*
X128000000Y-86040000D01*
X128000000Y-86040000D02*
X127890000Y-85930000D01*
%TD*%
D16*
%TO.N,+3V3*%
X184278000Y-137238000D02*
X119762000Y-137238000D01*
X119762000Y-134043891D01*
X125915000Y-134043891D01*
X125915000Y-134356109D01*
X125975911Y-134662327D01*
X126095391Y-134950779D01*
X126268850Y-135210379D01*
X126489621Y-135431150D01*
X126749221Y-135604609D01*
X127037673Y-135724089D01*
X127343891Y-135785000D01*
X127656109Y-135785000D01*
X127962327Y-135724089D01*
X128250779Y-135604609D01*
X128510379Y-135431150D01*
X128731150Y-135210379D01*
X128904609Y-134950779D01*
X129024089Y-134662327D01*
X129085000Y-134356109D01*
X129085000Y-134043891D01*
X129076184Y-133999570D01*
X130465000Y-133999570D01*
X130465000Y-134400430D01*
X130543204Y-134793587D01*
X130696607Y-135163934D01*
X130919313Y-135497237D01*
X131202763Y-135780687D01*
X131536066Y-136003393D01*
X131906413Y-136156796D01*
X132299570Y-136235000D01*
X132700430Y-136235000D01*
X133093587Y-136156796D01*
X133463934Y-136003393D01*
X133797237Y-135780687D01*
X134080687Y-135497237D01*
X134303393Y-135163934D01*
X134456796Y-134793587D01*
X134535000Y-134400430D01*
X134535000Y-133999570D01*
X156465000Y-133999570D01*
X156465000Y-134400430D01*
X156543204Y-134793587D01*
X156696607Y-135163934D01*
X156919313Y-135497237D01*
X157202763Y-135780687D01*
X157536066Y-136003393D01*
X157906413Y-136156796D01*
X158299570Y-136235000D01*
X158700430Y-136235000D01*
X159093587Y-136156796D01*
X159463934Y-136003393D01*
X159797237Y-135780687D01*
X160080687Y-135497237D01*
X160303393Y-135163934D01*
X160456796Y-134793587D01*
X160535000Y-134400430D01*
X160535000Y-133999570D01*
X169465000Y-133999570D01*
X169465000Y-134400430D01*
X169543204Y-134793587D01*
X169696607Y-135163934D01*
X169919313Y-135497237D01*
X170202763Y-135780687D01*
X170536066Y-136003393D01*
X170906413Y-136156796D01*
X171299570Y-136235000D01*
X171700430Y-136235000D01*
X172093587Y-136156796D01*
X172463934Y-136003393D01*
X172797237Y-135780687D01*
X173080687Y-135497237D01*
X173303393Y-135163934D01*
X173456796Y-134793587D01*
X173535000Y-134400430D01*
X173535000Y-134043891D01*
X174915000Y-134043891D01*
X174915000Y-134356109D01*
X174975911Y-134662327D01*
X175095391Y-134950779D01*
X175268850Y-135210379D01*
X175489621Y-135431150D01*
X175749221Y-135604609D01*
X176037673Y-135724089D01*
X176343891Y-135785000D01*
X176656109Y-135785000D01*
X176962327Y-135724089D01*
X177250779Y-135604609D01*
X177510379Y-135431150D01*
X177731150Y-135210379D01*
X177904609Y-134950779D01*
X178024089Y-134662327D01*
X178085000Y-134356109D01*
X178085000Y-134043891D01*
X178024089Y-133737673D01*
X177904609Y-133449221D01*
X177731150Y-133189621D01*
X177510379Y-132968850D01*
X177250779Y-132795391D01*
X176962327Y-132675911D01*
X176656109Y-132615000D01*
X176343891Y-132615000D01*
X176037673Y-132675911D01*
X175749221Y-132795391D01*
X175489621Y-132968850D01*
X175268850Y-133189621D01*
X175095391Y-133449221D01*
X174975911Y-133737673D01*
X174915000Y-134043891D01*
X173535000Y-134043891D01*
X173535000Y-133999570D01*
X173456796Y-133606413D01*
X173303393Y-133236066D01*
X173080687Y-132902763D01*
X172797237Y-132619313D01*
X172463934Y-132396607D01*
X172093587Y-132243204D01*
X171700430Y-132165000D01*
X171299570Y-132165000D01*
X170906413Y-132243204D01*
X170536066Y-132396607D01*
X170202763Y-132619313D01*
X169919313Y-132902763D01*
X169696607Y-133236066D01*
X169543204Y-133606413D01*
X169465000Y-133999570D01*
X160535000Y-133999570D01*
X160456796Y-133606413D01*
X160303393Y-133236066D01*
X160080687Y-132902763D01*
X159797237Y-132619313D01*
X159463934Y-132396607D01*
X159093587Y-132243204D01*
X158700430Y-132165000D01*
X158299570Y-132165000D01*
X157906413Y-132243204D01*
X157536066Y-132396607D01*
X157202763Y-132619313D01*
X156919313Y-132902763D01*
X156696607Y-133236066D01*
X156543204Y-133606413D01*
X156465000Y-133999570D01*
X134535000Y-133999570D01*
X134456796Y-133606413D01*
X134303393Y-133236066D01*
X134080687Y-132902763D01*
X133797237Y-132619313D01*
X133463934Y-132396607D01*
X133093587Y-132243204D01*
X132700430Y-132165000D01*
X132299570Y-132165000D01*
X131906413Y-132243204D01*
X131536066Y-132396607D01*
X131202763Y-132619313D01*
X130919313Y-132902763D01*
X130696607Y-133236066D01*
X130543204Y-133606413D01*
X130465000Y-133999570D01*
X129076184Y-133999570D01*
X129024089Y-133737673D01*
X128904609Y-133449221D01*
X128731150Y-133189621D01*
X128510379Y-132968850D01*
X128250779Y-132795391D01*
X127962327Y-132675911D01*
X127656109Y-132615000D01*
X127343891Y-132615000D01*
X127037673Y-132675911D01*
X126749221Y-132795391D01*
X126489621Y-132968850D01*
X126268850Y-133189621D01*
X126095391Y-133449221D01*
X125975911Y-133737673D01*
X125915000Y-134043891D01*
X119762000Y-134043891D01*
X119762000Y-115150000D01*
X126511928Y-115150000D01*
X126511928Y-116850000D01*
X126524188Y-116974482D01*
X126560498Y-117094180D01*
X126619463Y-117204494D01*
X126698815Y-117301185D01*
X126795506Y-117380537D01*
X126905820Y-117439502D01*
X126978380Y-117461513D01*
X126846525Y-117593368D01*
X126684010Y-117836589D01*
X126572068Y-118106842D01*
X126515000Y-118393740D01*
X126515000Y-118686260D01*
X126572068Y-118973158D01*
X126684010Y-119243411D01*
X126846525Y-119486632D01*
X127053368Y-119693475D01*
X127296589Y-119855990D01*
X127566842Y-119967932D01*
X127853740Y-120025000D01*
X128146260Y-120025000D01*
X128433158Y-119967932D01*
X128703411Y-119855990D01*
X128946632Y-119693475D01*
X129153475Y-119486632D01*
X129270000Y-119312240D01*
X129386525Y-119486632D01*
X129593368Y-119693475D01*
X129836589Y-119855990D01*
X130106842Y-119967932D01*
X130393740Y-120025000D01*
X130686260Y-120025000D01*
X130973158Y-119967932D01*
X131243411Y-119855990D01*
X131486632Y-119693475D01*
X131693475Y-119486632D01*
X131810000Y-119312240D01*
X131926525Y-119486632D01*
X132133368Y-119693475D01*
X132376589Y-119855990D01*
X132646842Y-119967932D01*
X132933740Y-120025000D01*
X133226260Y-120025000D01*
X133513158Y-119967932D01*
X133783411Y-119855990D01*
X134026632Y-119693475D01*
X134233475Y-119486632D01*
X134350000Y-119312240D01*
X134466525Y-119486632D01*
X134673368Y-119693475D01*
X134916589Y-119855990D01*
X135186842Y-119967932D01*
X135473740Y-120025000D01*
X135766260Y-120025000D01*
X136053158Y-119967932D01*
X136323411Y-119855990D01*
X136566632Y-119693475D01*
X136773475Y-119486632D01*
X136890000Y-119312240D01*
X137006525Y-119486632D01*
X137213368Y-119693475D01*
X137456589Y-119855990D01*
X137726842Y-119967932D01*
X138013740Y-120025000D01*
X138306260Y-120025000D01*
X138593158Y-119967932D01*
X138863411Y-119855990D01*
X139106632Y-119693475D01*
X139313475Y-119486632D01*
X139430000Y-119312240D01*
X139546525Y-119486632D01*
X139753368Y-119693475D01*
X139996589Y-119855990D01*
X140266842Y-119967932D01*
X140553740Y-120025000D01*
X140846260Y-120025000D01*
X141133158Y-119967932D01*
X141403411Y-119855990D01*
X141646632Y-119693475D01*
X141853475Y-119486632D01*
X141970000Y-119312240D01*
X142086525Y-119486632D01*
X142293368Y-119693475D01*
X142536589Y-119855990D01*
X142806842Y-119967932D01*
X143093740Y-120025000D01*
X143386260Y-120025000D01*
X143673158Y-119967932D01*
X143943411Y-119855990D01*
X144186632Y-119693475D01*
X144393475Y-119486632D01*
X144510000Y-119312240D01*
X144626525Y-119486632D01*
X144833368Y-119693475D01*
X145076589Y-119855990D01*
X145346842Y-119967932D01*
X145633740Y-120025000D01*
X145926260Y-120025000D01*
X146213158Y-119967932D01*
X146483411Y-119855990D01*
X146726632Y-119693475D01*
X146933475Y-119486632D01*
X147050000Y-119312240D01*
X147166525Y-119486632D01*
X147373368Y-119693475D01*
X147616589Y-119855990D01*
X147886842Y-119967932D01*
X148173740Y-120025000D01*
X148466260Y-120025000D01*
X148753158Y-119967932D01*
X149023411Y-119855990D01*
X149266632Y-119693475D01*
X149473475Y-119486632D01*
X149590000Y-119312240D01*
X149706525Y-119486632D01*
X149913368Y-119693475D01*
X150156589Y-119855990D01*
X150426842Y-119967932D01*
X150713740Y-120025000D01*
X151006260Y-120025000D01*
X151293158Y-119967932D01*
X151563411Y-119855990D01*
X151806632Y-119693475D01*
X152013475Y-119486632D01*
X152130000Y-119312240D01*
X152246525Y-119486632D01*
X152453368Y-119693475D01*
X152696589Y-119855990D01*
X152966842Y-119967932D01*
X153253740Y-120025000D01*
X153546260Y-120025000D01*
X153833158Y-119967932D01*
X154103411Y-119855990D01*
X154346632Y-119693475D01*
X154553475Y-119486632D01*
X154670000Y-119312240D01*
X154786525Y-119486632D01*
X154993368Y-119693475D01*
X155236589Y-119855990D01*
X155506842Y-119967932D01*
X155793740Y-120025000D01*
X156086260Y-120025000D01*
X156373158Y-119967932D01*
X156643411Y-119855990D01*
X156886632Y-119693475D01*
X157093475Y-119486632D01*
X157210000Y-119312240D01*
X157326525Y-119486632D01*
X157533368Y-119693475D01*
X157776589Y-119855990D01*
X158046842Y-119967932D01*
X158333740Y-120025000D01*
X158626260Y-120025000D01*
X158913158Y-119967932D01*
X159183411Y-119855990D01*
X159426632Y-119693475D01*
X159633475Y-119486632D01*
X159750000Y-119312240D01*
X159866525Y-119486632D01*
X160073368Y-119693475D01*
X160316589Y-119855990D01*
X160586842Y-119967932D01*
X160873740Y-120025000D01*
X161166260Y-120025000D01*
X161453158Y-119967932D01*
X161723411Y-119855990D01*
X161966632Y-119693475D01*
X162173475Y-119486632D01*
X162290000Y-119312240D01*
X162406525Y-119486632D01*
X162613368Y-119693475D01*
X162856589Y-119855990D01*
X163126842Y-119967932D01*
X163413740Y-120025000D01*
X163706260Y-120025000D01*
X163993158Y-119967932D01*
X164263411Y-119855990D01*
X164506632Y-119693475D01*
X164713475Y-119486632D01*
X164830000Y-119312240D01*
X164946525Y-119486632D01*
X165153368Y-119693475D01*
X165396589Y-119855990D01*
X165666842Y-119967932D01*
X165953740Y-120025000D01*
X166246260Y-120025000D01*
X166533158Y-119967932D01*
X166803411Y-119855990D01*
X167046632Y-119693475D01*
X167253475Y-119486632D01*
X167370000Y-119312240D01*
X167486525Y-119486632D01*
X167693368Y-119693475D01*
X167936589Y-119855990D01*
X168206842Y-119967932D01*
X168493740Y-120025000D01*
X168786260Y-120025000D01*
X169073158Y-119967932D01*
X169343411Y-119855990D01*
X169586632Y-119693475D01*
X169793475Y-119486632D01*
X169910000Y-119312240D01*
X170026525Y-119486632D01*
X170233368Y-119693475D01*
X170476589Y-119855990D01*
X170746842Y-119967932D01*
X171033740Y-120025000D01*
X171326260Y-120025000D01*
X171613158Y-119967932D01*
X171883411Y-119855990D01*
X172126632Y-119693475D01*
X172333475Y-119486632D01*
X172455195Y-119304466D01*
X172524822Y-119421355D01*
X172719731Y-119637588D01*
X172953080Y-119811641D01*
X173215901Y-119936825D01*
X173363110Y-119981476D01*
X173593000Y-119860155D01*
X173593000Y-118667000D01*
X173573000Y-118667000D01*
X173573000Y-118413000D01*
X173593000Y-118413000D01*
X173593000Y-118393000D01*
X173847000Y-118393000D01*
X173847000Y-118413000D01*
X173867000Y-118413000D01*
X173867000Y-118667000D01*
X173847000Y-118667000D01*
X173847000Y-119860155D01*
X174076890Y-119981476D01*
X174224099Y-119936825D01*
X174486920Y-119811641D01*
X174720269Y-119637588D01*
X174915178Y-119421355D01*
X174984805Y-119304466D01*
X175106525Y-119486632D01*
X175313368Y-119693475D01*
X175556589Y-119855990D01*
X175826842Y-119967932D01*
X176113740Y-120025000D01*
X176406260Y-120025000D01*
X176693158Y-119967932D01*
X176963411Y-119855990D01*
X177206632Y-119693475D01*
X177413475Y-119486632D01*
X177575990Y-119243411D01*
X177687932Y-118973158D01*
X177745000Y-118686260D01*
X177745000Y-118393740D01*
X177687932Y-118106842D01*
X177575990Y-117836589D01*
X177413475Y-117593368D01*
X177206632Y-117386525D01*
X177032240Y-117270000D01*
X177206632Y-117153475D01*
X177413475Y-116946632D01*
X177575990Y-116703411D01*
X177687932Y-116433158D01*
X177745000Y-116146260D01*
X177745000Y-115853740D01*
X177687932Y-115566842D01*
X177575990Y-115296589D01*
X177413475Y-115053368D01*
X177206632Y-114846525D01*
X176963411Y-114684010D01*
X176693158Y-114572068D01*
X176406260Y-114515000D01*
X176113740Y-114515000D01*
X175826842Y-114572068D01*
X175556589Y-114684010D01*
X175313368Y-114846525D01*
X175106525Y-115053368D01*
X174990000Y-115227760D01*
X174873475Y-115053368D01*
X174666632Y-114846525D01*
X174480000Y-114721822D01*
X174480000Y-86718043D01*
X174634759Y-86614637D01*
X174834637Y-86414759D01*
X174991680Y-86179727D01*
X175099853Y-85918574D01*
X175155000Y-85641335D01*
X175155000Y-85358665D01*
X175099853Y-85081426D01*
X174991680Y-84820273D01*
X174834637Y-84585241D01*
X174634759Y-84385363D01*
X174399727Y-84228320D01*
X174138574Y-84120147D01*
X173861335Y-84065000D01*
X173578665Y-84065000D01*
X173301426Y-84120147D01*
X173040273Y-84228320D01*
X172805241Y-84385363D01*
X172605363Y-84585241D01*
X172450000Y-84817759D01*
X172294637Y-84585241D01*
X172094759Y-84385363D01*
X171859727Y-84228320D01*
X171598574Y-84120147D01*
X171321335Y-84065000D01*
X171038665Y-84065000D01*
X170761426Y-84120147D01*
X170500273Y-84228320D01*
X170265241Y-84385363D01*
X170065363Y-84585241D01*
X169910000Y-84817759D01*
X169754637Y-84585241D01*
X169554759Y-84385363D01*
X169319727Y-84228320D01*
X169058574Y-84120147D01*
X168781335Y-84065000D01*
X168498665Y-84065000D01*
X168221426Y-84120147D01*
X167960273Y-84228320D01*
X167725241Y-84385363D01*
X167525363Y-84585241D01*
X167370000Y-84817759D01*
X167214637Y-84585241D01*
X167014759Y-84385363D01*
X166779727Y-84228320D01*
X166518574Y-84120147D01*
X166241335Y-84065000D01*
X165958665Y-84065000D01*
X165681426Y-84120147D01*
X165420273Y-84228320D01*
X165185241Y-84385363D01*
X164985363Y-84585241D01*
X164830000Y-84817759D01*
X164674637Y-84585241D01*
X164474759Y-84385363D01*
X164239727Y-84228320D01*
X163978574Y-84120147D01*
X163701335Y-84065000D01*
X163418665Y-84065000D01*
X163141426Y-84120147D01*
X162880273Y-84228320D01*
X162645241Y-84385363D01*
X162445363Y-84585241D01*
X162290000Y-84817759D01*
X162134637Y-84585241D01*
X161934759Y-84385363D01*
X161699727Y-84228320D01*
X161438574Y-84120147D01*
X161161335Y-84065000D01*
X160878665Y-84065000D01*
X160601426Y-84120147D01*
X160340273Y-84228320D01*
X160105241Y-84385363D01*
X159905363Y-84585241D01*
X159750000Y-84817759D01*
X159594637Y-84585241D01*
X159394759Y-84385363D01*
X159159727Y-84228320D01*
X158898574Y-84120147D01*
X158621335Y-84065000D01*
X158338665Y-84065000D01*
X158061426Y-84120147D01*
X157800273Y-84228320D01*
X157565241Y-84385363D01*
X157365363Y-84585241D01*
X157210000Y-84817759D01*
X157054637Y-84585241D01*
X156854759Y-84385363D01*
X156619727Y-84228320D01*
X156358574Y-84120147D01*
X156081335Y-84065000D01*
X155798665Y-84065000D01*
X155521426Y-84120147D01*
X155260273Y-84228320D01*
X155025241Y-84385363D01*
X154825363Y-84585241D01*
X154670000Y-84817759D01*
X154514637Y-84585241D01*
X154314759Y-84385363D01*
X154079727Y-84228320D01*
X153818574Y-84120147D01*
X153541335Y-84065000D01*
X153258665Y-84065000D01*
X152981426Y-84120147D01*
X152720273Y-84228320D01*
X152485241Y-84385363D01*
X152285363Y-84585241D01*
X152130000Y-84817759D01*
X151974637Y-84585241D01*
X151774759Y-84385363D01*
X151539727Y-84228320D01*
X151278574Y-84120147D01*
X151001335Y-84065000D01*
X150718665Y-84065000D01*
X150441426Y-84120147D01*
X150180273Y-84228320D01*
X149945241Y-84385363D01*
X149745363Y-84585241D01*
X149590000Y-84817759D01*
X149434637Y-84585241D01*
X149234759Y-84385363D01*
X148999727Y-84228320D01*
X148738574Y-84120147D01*
X148461335Y-84065000D01*
X148178665Y-84065000D01*
X147901426Y-84120147D01*
X147640273Y-84228320D01*
X147405241Y-84385363D01*
X147205363Y-84585241D01*
X147050000Y-84817759D01*
X146894637Y-84585241D01*
X146694759Y-84385363D01*
X146459727Y-84228320D01*
X146198574Y-84120147D01*
X145921335Y-84065000D01*
X145638665Y-84065000D01*
X145361426Y-84120147D01*
X145100273Y-84228320D01*
X144865241Y-84385363D01*
X144665363Y-84585241D01*
X144510000Y-84817759D01*
X144354637Y-84585241D01*
X144154759Y-84385363D01*
X143919727Y-84228320D01*
X143658574Y-84120147D01*
X143381335Y-84065000D01*
X143098665Y-84065000D01*
X142821426Y-84120147D01*
X142560273Y-84228320D01*
X142325241Y-84385363D01*
X142125363Y-84585241D01*
X141970000Y-84817759D01*
X141814637Y-84585241D01*
X141614759Y-84385363D01*
X141379727Y-84228320D01*
X141118574Y-84120147D01*
X140841335Y-84065000D01*
X140558665Y-84065000D01*
X140281426Y-84120147D01*
X140020273Y-84228320D01*
X139785241Y-84385363D01*
X139585363Y-84585241D01*
X139430000Y-84817759D01*
X139274637Y-84585241D01*
X139074759Y-84385363D01*
X138839727Y-84228320D01*
X138578574Y-84120147D01*
X138301335Y-84065000D01*
X138018665Y-84065000D01*
X137741426Y-84120147D01*
X137480273Y-84228320D01*
X137245241Y-84385363D01*
X137045363Y-84585241D01*
X136890000Y-84817759D01*
X136734637Y-84585241D01*
X136534759Y-84385363D01*
X136299727Y-84228320D01*
X136038574Y-84120147D01*
X135761335Y-84065000D01*
X135478665Y-84065000D01*
X135201426Y-84120147D01*
X134940273Y-84228320D01*
X134705241Y-84385363D01*
X134505363Y-84585241D01*
X134350000Y-84817759D01*
X134194637Y-84585241D01*
X133994759Y-84385363D01*
X133759727Y-84228320D01*
X133498574Y-84120147D01*
X133221335Y-84065000D01*
X132938665Y-84065000D01*
X132661426Y-84120147D01*
X132400273Y-84228320D01*
X132165241Y-84385363D01*
X131965363Y-84585241D01*
X131810000Y-84817759D01*
X131654637Y-84585241D01*
X131454759Y-84385363D01*
X131219727Y-84228320D01*
X130958574Y-84120147D01*
X130681335Y-84065000D01*
X130398665Y-84065000D01*
X130121426Y-84120147D01*
X129860273Y-84228320D01*
X129625241Y-84385363D01*
X129426643Y-84583961D01*
X129425812Y-84575518D01*
X129389502Y-84455820D01*
X129330537Y-84345506D01*
X129251185Y-84248815D01*
X129154494Y-84169463D01*
X129044180Y-84110498D01*
X128924482Y-84074188D01*
X128800000Y-84061928D01*
X127200000Y-84061928D01*
X127075518Y-84074188D01*
X126955820Y-84110498D01*
X126845506Y-84169463D01*
X126748815Y-84248815D01*
X126669463Y-84345506D01*
X126610498Y-84455820D01*
X126574188Y-84575518D01*
X126561928Y-84700000D01*
X126561928Y-86300000D01*
X126574188Y-86424482D01*
X126610498Y-86544180D01*
X126669463Y-86654494D01*
X126748815Y-86751185D01*
X126845506Y-86830537D01*
X126955820Y-86889502D01*
X127075518Y-86925812D01*
X127200000Y-86938072D01*
X127240001Y-86938072D01*
X127240000Y-114511928D01*
X127150000Y-114511928D01*
X127025518Y-114524188D01*
X126905820Y-114560498D01*
X126795506Y-114619463D01*
X126698815Y-114698815D01*
X126619463Y-114795506D01*
X126560498Y-114905820D01*
X126524188Y-115025518D01*
X126511928Y-115150000D01*
X119762000Y-115150000D01*
X119762000Y-97208816D01*
X121275000Y-97208816D01*
X121275000Y-97511184D01*
X121333989Y-97807743D01*
X121449701Y-98087095D01*
X121617688Y-98338505D01*
X121831495Y-98552312D01*
X122082905Y-98720299D01*
X122362257Y-98836011D01*
X122658816Y-98895000D01*
X122961184Y-98895000D01*
X123257743Y-98836011D01*
X123537095Y-98720299D01*
X123788505Y-98552312D01*
X124002312Y-98338505D01*
X124170299Y-98087095D01*
X124286011Y-97807743D01*
X124345000Y-97511184D01*
X124345000Y-97208816D01*
X124286011Y-96912257D01*
X124170299Y-96632905D01*
X124002312Y-96381495D01*
X123788505Y-96167688D01*
X123537095Y-95999701D01*
X123257743Y-95883989D01*
X122961184Y-95825000D01*
X122658816Y-95825000D01*
X122362257Y-95883989D01*
X122082905Y-95999701D01*
X121831495Y-96167688D01*
X121617688Y-96381495D01*
X121449701Y-96632905D01*
X121333989Y-96912257D01*
X121275000Y-97208816D01*
X119762000Y-97208816D01*
X119762000Y-92709080D01*
X121925525Y-92709080D01*
X122009208Y-92963261D01*
X122281775Y-93094158D01*
X122574642Y-93169365D01*
X122876553Y-93185991D01*
X123175907Y-93143397D01*
X123461199Y-93043222D01*
X123610792Y-92963261D01*
X123694475Y-92709080D01*
X122810000Y-91824605D01*
X121925525Y-92709080D01*
X119762000Y-92709080D01*
X119762000Y-91711553D01*
X121269009Y-91711553D01*
X121311603Y-92010907D01*
X121411778Y-92296199D01*
X121491739Y-92445792D01*
X121745920Y-92529475D01*
X122630395Y-91645000D01*
X122989605Y-91645000D01*
X123874080Y-92529475D01*
X124128261Y-92445792D01*
X124259158Y-92173225D01*
X124334365Y-91880358D01*
X124350991Y-91578447D01*
X124308397Y-91279093D01*
X124208222Y-90993801D01*
X124128261Y-90844208D01*
X123874080Y-90760525D01*
X122989605Y-91645000D01*
X122630395Y-91645000D01*
X121745920Y-90760525D01*
X121491739Y-90844208D01*
X121360842Y-91116775D01*
X121285635Y-91409642D01*
X121269009Y-91711553D01*
X119762000Y-91711553D01*
X119762000Y-90580920D01*
X121925525Y-90580920D01*
X122810000Y-91465395D01*
X123694475Y-90580920D01*
X123610792Y-90326739D01*
X123338225Y-90195842D01*
X123045358Y-90120635D01*
X122743447Y-90104009D01*
X122444093Y-90146603D01*
X122158801Y-90246778D01*
X122009208Y-90326739D01*
X121925525Y-90580920D01*
X119762000Y-90580920D01*
X119762000Y-73992000D01*
X184278000Y-73992000D01*
X184278000Y-137238000D01*
%TA.AperFunction,Conductor*%
D17*
G36*
X184278000Y-137238000D02*
G01*
X119762000Y-137238000D01*
X119762000Y-134043891D01*
X125915000Y-134043891D01*
X125915000Y-134356109D01*
X125975911Y-134662327D01*
X126095391Y-134950779D01*
X126268850Y-135210379D01*
X126489621Y-135431150D01*
X126749221Y-135604609D01*
X127037673Y-135724089D01*
X127343891Y-135785000D01*
X127656109Y-135785000D01*
X127962327Y-135724089D01*
X128250779Y-135604609D01*
X128510379Y-135431150D01*
X128731150Y-135210379D01*
X128904609Y-134950779D01*
X129024089Y-134662327D01*
X129085000Y-134356109D01*
X129085000Y-134043891D01*
X129076184Y-133999570D01*
X130465000Y-133999570D01*
X130465000Y-134400430D01*
X130543204Y-134793587D01*
X130696607Y-135163934D01*
X130919313Y-135497237D01*
X131202763Y-135780687D01*
X131536066Y-136003393D01*
X131906413Y-136156796D01*
X132299570Y-136235000D01*
X132700430Y-136235000D01*
X133093587Y-136156796D01*
X133463934Y-136003393D01*
X133797237Y-135780687D01*
X134080687Y-135497237D01*
X134303393Y-135163934D01*
X134456796Y-134793587D01*
X134535000Y-134400430D01*
X134535000Y-133999570D01*
X156465000Y-133999570D01*
X156465000Y-134400430D01*
X156543204Y-134793587D01*
X156696607Y-135163934D01*
X156919313Y-135497237D01*
X157202763Y-135780687D01*
X157536066Y-136003393D01*
X157906413Y-136156796D01*
X158299570Y-136235000D01*
X158700430Y-136235000D01*
X159093587Y-136156796D01*
X159463934Y-136003393D01*
X159797237Y-135780687D01*
X160080687Y-135497237D01*
X160303393Y-135163934D01*
X160456796Y-134793587D01*
X160535000Y-134400430D01*
X160535000Y-133999570D01*
X169465000Y-133999570D01*
X169465000Y-134400430D01*
X169543204Y-134793587D01*
X169696607Y-135163934D01*
X169919313Y-135497237D01*
X170202763Y-135780687D01*
X170536066Y-136003393D01*
X170906413Y-136156796D01*
X171299570Y-136235000D01*
X171700430Y-136235000D01*
X172093587Y-136156796D01*
X172463934Y-136003393D01*
X172797237Y-135780687D01*
X173080687Y-135497237D01*
X173303393Y-135163934D01*
X173456796Y-134793587D01*
X173535000Y-134400430D01*
X173535000Y-134043891D01*
X174915000Y-134043891D01*
X174915000Y-134356109D01*
X174975911Y-134662327D01*
X175095391Y-134950779D01*
X175268850Y-135210379D01*
X175489621Y-135431150D01*
X175749221Y-135604609D01*
X176037673Y-135724089D01*
X176343891Y-135785000D01*
X176656109Y-135785000D01*
X176962327Y-135724089D01*
X177250779Y-135604609D01*
X177510379Y-135431150D01*
X177731150Y-135210379D01*
X177904609Y-134950779D01*
X178024089Y-134662327D01*
X178085000Y-134356109D01*
X178085000Y-134043891D01*
X178024089Y-133737673D01*
X177904609Y-133449221D01*
X177731150Y-133189621D01*
X177510379Y-132968850D01*
X177250779Y-132795391D01*
X176962327Y-132675911D01*
X176656109Y-132615000D01*
X176343891Y-132615000D01*
X176037673Y-132675911D01*
X175749221Y-132795391D01*
X175489621Y-132968850D01*
X175268850Y-133189621D01*
X175095391Y-133449221D01*
X174975911Y-133737673D01*
X174915000Y-134043891D01*
X173535000Y-134043891D01*
X173535000Y-133999570D01*
X173456796Y-133606413D01*
X173303393Y-133236066D01*
X173080687Y-132902763D01*
X172797237Y-132619313D01*
X172463934Y-132396607D01*
X172093587Y-132243204D01*
X171700430Y-132165000D01*
X171299570Y-132165000D01*
X170906413Y-132243204D01*
X170536066Y-132396607D01*
X170202763Y-132619313D01*
X169919313Y-132902763D01*
X169696607Y-133236066D01*
X169543204Y-133606413D01*
X169465000Y-133999570D01*
X160535000Y-133999570D01*
X160456796Y-133606413D01*
X160303393Y-133236066D01*
X160080687Y-132902763D01*
X159797237Y-132619313D01*
X159463934Y-132396607D01*
X159093587Y-132243204D01*
X158700430Y-132165000D01*
X158299570Y-132165000D01*
X157906413Y-132243204D01*
X157536066Y-132396607D01*
X157202763Y-132619313D01*
X156919313Y-132902763D01*
X156696607Y-133236066D01*
X156543204Y-133606413D01*
X156465000Y-133999570D01*
X134535000Y-133999570D01*
X134456796Y-133606413D01*
X134303393Y-133236066D01*
X134080687Y-132902763D01*
X133797237Y-132619313D01*
X133463934Y-132396607D01*
X133093587Y-132243204D01*
X132700430Y-132165000D01*
X132299570Y-132165000D01*
X131906413Y-132243204D01*
X131536066Y-132396607D01*
X131202763Y-132619313D01*
X130919313Y-132902763D01*
X130696607Y-133236066D01*
X130543204Y-133606413D01*
X130465000Y-133999570D01*
X129076184Y-133999570D01*
X129024089Y-133737673D01*
X128904609Y-133449221D01*
X128731150Y-133189621D01*
X128510379Y-132968850D01*
X128250779Y-132795391D01*
X127962327Y-132675911D01*
X127656109Y-132615000D01*
X127343891Y-132615000D01*
X127037673Y-132675911D01*
X126749221Y-132795391D01*
X126489621Y-132968850D01*
X126268850Y-133189621D01*
X126095391Y-133449221D01*
X125975911Y-133737673D01*
X125915000Y-134043891D01*
X119762000Y-134043891D01*
X119762000Y-115150000D01*
X126511928Y-115150000D01*
X126511928Y-116850000D01*
X126524188Y-116974482D01*
X126560498Y-117094180D01*
X126619463Y-117204494D01*
X126698815Y-117301185D01*
X126795506Y-117380537D01*
X126905820Y-117439502D01*
X126978380Y-117461513D01*
X126846525Y-117593368D01*
X126684010Y-117836589D01*
X126572068Y-118106842D01*
X126515000Y-118393740D01*
X126515000Y-118686260D01*
X126572068Y-118973158D01*
X126684010Y-119243411D01*
X126846525Y-119486632D01*
X127053368Y-119693475D01*
X127296589Y-119855990D01*
X127566842Y-119967932D01*
X127853740Y-120025000D01*
X128146260Y-120025000D01*
X128433158Y-119967932D01*
X128703411Y-119855990D01*
X128946632Y-119693475D01*
X129153475Y-119486632D01*
X129270000Y-119312240D01*
X129386525Y-119486632D01*
X129593368Y-119693475D01*
X129836589Y-119855990D01*
X130106842Y-119967932D01*
X130393740Y-120025000D01*
X130686260Y-120025000D01*
X130973158Y-119967932D01*
X131243411Y-119855990D01*
X131486632Y-119693475D01*
X131693475Y-119486632D01*
X131810000Y-119312240D01*
X131926525Y-119486632D01*
X132133368Y-119693475D01*
X132376589Y-119855990D01*
X132646842Y-119967932D01*
X132933740Y-120025000D01*
X133226260Y-120025000D01*
X133513158Y-119967932D01*
X133783411Y-119855990D01*
X134026632Y-119693475D01*
X134233475Y-119486632D01*
X134350000Y-119312240D01*
X134466525Y-119486632D01*
X134673368Y-119693475D01*
X134916589Y-119855990D01*
X135186842Y-119967932D01*
X135473740Y-120025000D01*
X135766260Y-120025000D01*
X136053158Y-119967932D01*
X136323411Y-119855990D01*
X136566632Y-119693475D01*
X136773475Y-119486632D01*
X136890000Y-119312240D01*
X137006525Y-119486632D01*
X137213368Y-119693475D01*
X137456589Y-119855990D01*
X137726842Y-119967932D01*
X138013740Y-120025000D01*
X138306260Y-120025000D01*
X138593158Y-119967932D01*
X138863411Y-119855990D01*
X139106632Y-119693475D01*
X139313475Y-119486632D01*
X139430000Y-119312240D01*
X139546525Y-119486632D01*
X139753368Y-119693475D01*
X139996589Y-119855990D01*
X140266842Y-119967932D01*
X140553740Y-120025000D01*
X140846260Y-120025000D01*
X141133158Y-119967932D01*
X141403411Y-119855990D01*
X141646632Y-119693475D01*
X141853475Y-119486632D01*
X141970000Y-119312240D01*
X142086525Y-119486632D01*
X142293368Y-119693475D01*
X142536589Y-119855990D01*
X142806842Y-119967932D01*
X143093740Y-120025000D01*
X143386260Y-120025000D01*
X143673158Y-119967932D01*
X143943411Y-119855990D01*
X144186632Y-119693475D01*
X144393475Y-119486632D01*
X144510000Y-119312240D01*
X144626525Y-119486632D01*
X144833368Y-119693475D01*
X145076589Y-119855990D01*
X145346842Y-119967932D01*
X145633740Y-120025000D01*
X145926260Y-120025000D01*
X146213158Y-119967932D01*
X146483411Y-119855990D01*
X146726632Y-119693475D01*
X146933475Y-119486632D01*
X147050000Y-119312240D01*
X147166525Y-119486632D01*
X147373368Y-119693475D01*
X147616589Y-119855990D01*
X147886842Y-119967932D01*
X148173740Y-120025000D01*
X148466260Y-120025000D01*
X148753158Y-119967932D01*
X149023411Y-119855990D01*
X149266632Y-119693475D01*
X149473475Y-119486632D01*
X149590000Y-119312240D01*
X149706525Y-119486632D01*
X149913368Y-119693475D01*
X150156589Y-119855990D01*
X150426842Y-119967932D01*
X150713740Y-120025000D01*
X151006260Y-120025000D01*
X151293158Y-119967932D01*
X151563411Y-119855990D01*
X151806632Y-119693475D01*
X152013475Y-119486632D01*
X152130000Y-119312240D01*
X152246525Y-119486632D01*
X152453368Y-119693475D01*
X152696589Y-119855990D01*
X152966842Y-119967932D01*
X153253740Y-120025000D01*
X153546260Y-120025000D01*
X153833158Y-119967932D01*
X154103411Y-119855990D01*
X154346632Y-119693475D01*
X154553475Y-119486632D01*
X154670000Y-119312240D01*
X154786525Y-119486632D01*
X154993368Y-119693475D01*
X155236589Y-119855990D01*
X155506842Y-119967932D01*
X155793740Y-120025000D01*
X156086260Y-120025000D01*
X156373158Y-119967932D01*
X156643411Y-119855990D01*
X156886632Y-119693475D01*
X157093475Y-119486632D01*
X157210000Y-119312240D01*
X157326525Y-119486632D01*
X157533368Y-119693475D01*
X157776589Y-119855990D01*
X158046842Y-119967932D01*
X158333740Y-120025000D01*
X158626260Y-120025000D01*
X158913158Y-119967932D01*
X159183411Y-119855990D01*
X159426632Y-119693475D01*
X159633475Y-119486632D01*
X159750000Y-119312240D01*
X159866525Y-119486632D01*
X160073368Y-119693475D01*
X160316589Y-119855990D01*
X160586842Y-119967932D01*
X160873740Y-120025000D01*
X161166260Y-120025000D01*
X161453158Y-119967932D01*
X161723411Y-119855990D01*
X161966632Y-119693475D01*
X162173475Y-119486632D01*
X162290000Y-119312240D01*
X162406525Y-119486632D01*
X162613368Y-119693475D01*
X162856589Y-119855990D01*
X163126842Y-119967932D01*
X163413740Y-120025000D01*
X163706260Y-120025000D01*
X163993158Y-119967932D01*
X164263411Y-119855990D01*
X164506632Y-119693475D01*
X164713475Y-119486632D01*
X164830000Y-119312240D01*
X164946525Y-119486632D01*
X165153368Y-119693475D01*
X165396589Y-119855990D01*
X165666842Y-119967932D01*
X165953740Y-120025000D01*
X166246260Y-120025000D01*
X166533158Y-119967932D01*
X166803411Y-119855990D01*
X167046632Y-119693475D01*
X167253475Y-119486632D01*
X167370000Y-119312240D01*
X167486525Y-119486632D01*
X167693368Y-119693475D01*
X167936589Y-119855990D01*
X168206842Y-119967932D01*
X168493740Y-120025000D01*
X168786260Y-120025000D01*
X169073158Y-119967932D01*
X169343411Y-119855990D01*
X169586632Y-119693475D01*
X169793475Y-119486632D01*
X169910000Y-119312240D01*
X170026525Y-119486632D01*
X170233368Y-119693475D01*
X170476589Y-119855990D01*
X170746842Y-119967932D01*
X171033740Y-120025000D01*
X171326260Y-120025000D01*
X171613158Y-119967932D01*
X171883411Y-119855990D01*
X172126632Y-119693475D01*
X172333475Y-119486632D01*
X172455195Y-119304466D01*
X172524822Y-119421355D01*
X172719731Y-119637588D01*
X172953080Y-119811641D01*
X173215901Y-119936825D01*
X173363110Y-119981476D01*
X173593000Y-119860155D01*
X173593000Y-118667000D01*
X173573000Y-118667000D01*
X173573000Y-118413000D01*
X173593000Y-118413000D01*
X173593000Y-118393000D01*
X173847000Y-118393000D01*
X173847000Y-118413000D01*
X173867000Y-118413000D01*
X173867000Y-118667000D01*
X173847000Y-118667000D01*
X173847000Y-119860155D01*
X174076890Y-119981476D01*
X174224099Y-119936825D01*
X174486920Y-119811641D01*
X174720269Y-119637588D01*
X174915178Y-119421355D01*
X174984805Y-119304466D01*
X175106525Y-119486632D01*
X175313368Y-119693475D01*
X175556589Y-119855990D01*
X175826842Y-119967932D01*
X176113740Y-120025000D01*
X176406260Y-120025000D01*
X176693158Y-119967932D01*
X176963411Y-119855990D01*
X177206632Y-119693475D01*
X177413475Y-119486632D01*
X177575990Y-119243411D01*
X177687932Y-118973158D01*
X177745000Y-118686260D01*
X177745000Y-118393740D01*
X177687932Y-118106842D01*
X177575990Y-117836589D01*
X177413475Y-117593368D01*
X177206632Y-117386525D01*
X177032240Y-117270000D01*
X177206632Y-117153475D01*
X177413475Y-116946632D01*
X177575990Y-116703411D01*
X177687932Y-116433158D01*
X177745000Y-116146260D01*
X177745000Y-115853740D01*
X177687932Y-115566842D01*
X177575990Y-115296589D01*
X177413475Y-115053368D01*
X177206632Y-114846525D01*
X176963411Y-114684010D01*
X176693158Y-114572068D01*
X176406260Y-114515000D01*
X176113740Y-114515000D01*
X175826842Y-114572068D01*
X175556589Y-114684010D01*
X175313368Y-114846525D01*
X175106525Y-115053368D01*
X174990000Y-115227760D01*
X174873475Y-115053368D01*
X174666632Y-114846525D01*
X174480000Y-114721822D01*
X174480000Y-86718043D01*
X174634759Y-86614637D01*
X174834637Y-86414759D01*
X174991680Y-86179727D01*
X175099853Y-85918574D01*
X175155000Y-85641335D01*
X175155000Y-85358665D01*
X175099853Y-85081426D01*
X174991680Y-84820273D01*
X174834637Y-84585241D01*
X174634759Y-84385363D01*
X174399727Y-84228320D01*
X174138574Y-84120147D01*
X173861335Y-84065000D01*
X173578665Y-84065000D01*
X173301426Y-84120147D01*
X173040273Y-84228320D01*
X172805241Y-84385363D01*
X172605363Y-84585241D01*
X172450000Y-84817759D01*
X172294637Y-84585241D01*
X172094759Y-84385363D01*
X171859727Y-84228320D01*
X171598574Y-84120147D01*
X171321335Y-84065000D01*
X171038665Y-84065000D01*
X170761426Y-84120147D01*
X170500273Y-84228320D01*
X170265241Y-84385363D01*
X170065363Y-84585241D01*
X169910000Y-84817759D01*
X169754637Y-84585241D01*
X169554759Y-84385363D01*
X169319727Y-84228320D01*
X169058574Y-84120147D01*
X168781335Y-84065000D01*
X168498665Y-84065000D01*
X168221426Y-84120147D01*
X167960273Y-84228320D01*
X167725241Y-84385363D01*
X167525363Y-84585241D01*
X167370000Y-84817759D01*
X167214637Y-84585241D01*
X167014759Y-84385363D01*
X166779727Y-84228320D01*
X166518574Y-84120147D01*
X166241335Y-84065000D01*
X165958665Y-84065000D01*
X165681426Y-84120147D01*
X165420273Y-84228320D01*
X165185241Y-84385363D01*
X164985363Y-84585241D01*
X164830000Y-84817759D01*
X164674637Y-84585241D01*
X164474759Y-84385363D01*
X164239727Y-84228320D01*
X163978574Y-84120147D01*
X163701335Y-84065000D01*
X163418665Y-84065000D01*
X163141426Y-84120147D01*
X162880273Y-84228320D01*
X162645241Y-84385363D01*
X162445363Y-84585241D01*
X162290000Y-84817759D01*
X162134637Y-84585241D01*
X161934759Y-84385363D01*
X161699727Y-84228320D01*
X161438574Y-84120147D01*
X161161335Y-84065000D01*
X160878665Y-84065000D01*
X160601426Y-84120147D01*
X160340273Y-84228320D01*
X160105241Y-84385363D01*
X159905363Y-84585241D01*
X159750000Y-84817759D01*
X159594637Y-84585241D01*
X159394759Y-84385363D01*
X159159727Y-84228320D01*
X158898574Y-84120147D01*
X158621335Y-84065000D01*
X158338665Y-84065000D01*
X158061426Y-84120147D01*
X157800273Y-84228320D01*
X157565241Y-84385363D01*
X157365363Y-84585241D01*
X157210000Y-84817759D01*
X157054637Y-84585241D01*
X156854759Y-84385363D01*
X156619727Y-84228320D01*
X156358574Y-84120147D01*
X156081335Y-84065000D01*
X155798665Y-84065000D01*
X155521426Y-84120147D01*
X155260273Y-84228320D01*
X155025241Y-84385363D01*
X154825363Y-84585241D01*
X154670000Y-84817759D01*
X154514637Y-84585241D01*
X154314759Y-84385363D01*
X154079727Y-84228320D01*
X153818574Y-84120147D01*
X153541335Y-84065000D01*
X153258665Y-84065000D01*
X152981426Y-84120147D01*
X152720273Y-84228320D01*
X152485241Y-84385363D01*
X152285363Y-84585241D01*
X152130000Y-84817759D01*
X151974637Y-84585241D01*
X151774759Y-84385363D01*
X151539727Y-84228320D01*
X151278574Y-84120147D01*
X151001335Y-84065000D01*
X150718665Y-84065000D01*
X150441426Y-84120147D01*
X150180273Y-84228320D01*
X149945241Y-84385363D01*
X149745363Y-84585241D01*
X149590000Y-84817759D01*
X149434637Y-84585241D01*
X149234759Y-84385363D01*
X148999727Y-84228320D01*
X148738574Y-84120147D01*
X148461335Y-84065000D01*
X148178665Y-84065000D01*
X147901426Y-84120147D01*
X147640273Y-84228320D01*
X147405241Y-84385363D01*
X147205363Y-84585241D01*
X147050000Y-84817759D01*
X146894637Y-84585241D01*
X146694759Y-84385363D01*
X146459727Y-84228320D01*
X146198574Y-84120147D01*
X145921335Y-84065000D01*
X145638665Y-84065000D01*
X145361426Y-84120147D01*
X145100273Y-84228320D01*
X144865241Y-84385363D01*
X144665363Y-84585241D01*
X144510000Y-84817759D01*
X144354637Y-84585241D01*
X144154759Y-84385363D01*
X143919727Y-84228320D01*
X143658574Y-84120147D01*
X143381335Y-84065000D01*
X143098665Y-84065000D01*
X142821426Y-84120147D01*
X142560273Y-84228320D01*
X142325241Y-84385363D01*
X142125363Y-84585241D01*
X141970000Y-84817759D01*
X141814637Y-84585241D01*
X141614759Y-84385363D01*
X141379727Y-84228320D01*
X141118574Y-84120147D01*
X140841335Y-84065000D01*
X140558665Y-84065000D01*
X140281426Y-84120147D01*
X140020273Y-84228320D01*
X139785241Y-84385363D01*
X139585363Y-84585241D01*
X139430000Y-84817759D01*
X139274637Y-84585241D01*
X139074759Y-84385363D01*
X138839727Y-84228320D01*
X138578574Y-84120147D01*
X138301335Y-84065000D01*
X138018665Y-84065000D01*
X137741426Y-84120147D01*
X137480273Y-84228320D01*
X137245241Y-84385363D01*
X137045363Y-84585241D01*
X136890000Y-84817759D01*
X136734637Y-84585241D01*
X136534759Y-84385363D01*
X136299727Y-84228320D01*
X136038574Y-84120147D01*
X135761335Y-84065000D01*
X135478665Y-84065000D01*
X135201426Y-84120147D01*
X134940273Y-84228320D01*
X134705241Y-84385363D01*
X134505363Y-84585241D01*
X134350000Y-84817759D01*
X134194637Y-84585241D01*
X133994759Y-84385363D01*
X133759727Y-84228320D01*
X133498574Y-84120147D01*
X133221335Y-84065000D01*
X132938665Y-84065000D01*
X132661426Y-84120147D01*
X132400273Y-84228320D01*
X132165241Y-84385363D01*
X131965363Y-84585241D01*
X131810000Y-84817759D01*
X131654637Y-84585241D01*
X131454759Y-84385363D01*
X131219727Y-84228320D01*
X130958574Y-84120147D01*
X130681335Y-84065000D01*
X130398665Y-84065000D01*
X130121426Y-84120147D01*
X129860273Y-84228320D01*
X129625241Y-84385363D01*
X129426643Y-84583961D01*
X129425812Y-84575518D01*
X129389502Y-84455820D01*
X129330537Y-84345506D01*
X129251185Y-84248815D01*
X129154494Y-84169463D01*
X129044180Y-84110498D01*
X128924482Y-84074188D01*
X128800000Y-84061928D01*
X127200000Y-84061928D01*
X127075518Y-84074188D01*
X126955820Y-84110498D01*
X126845506Y-84169463D01*
X126748815Y-84248815D01*
X126669463Y-84345506D01*
X126610498Y-84455820D01*
X126574188Y-84575518D01*
X126561928Y-84700000D01*
X126561928Y-86300000D01*
X126574188Y-86424482D01*
X126610498Y-86544180D01*
X126669463Y-86654494D01*
X126748815Y-86751185D01*
X126845506Y-86830537D01*
X126955820Y-86889502D01*
X127075518Y-86925812D01*
X127200000Y-86938072D01*
X127240001Y-86938072D01*
X127240000Y-114511928D01*
X127150000Y-114511928D01*
X127025518Y-114524188D01*
X126905820Y-114560498D01*
X126795506Y-114619463D01*
X126698815Y-114698815D01*
X126619463Y-114795506D01*
X126560498Y-114905820D01*
X126524188Y-115025518D01*
X126511928Y-115150000D01*
X119762000Y-115150000D01*
X119762000Y-97208816D01*
X121275000Y-97208816D01*
X121275000Y-97511184D01*
X121333989Y-97807743D01*
X121449701Y-98087095D01*
X121617688Y-98338505D01*
X121831495Y-98552312D01*
X122082905Y-98720299D01*
X122362257Y-98836011D01*
X122658816Y-98895000D01*
X122961184Y-98895000D01*
X123257743Y-98836011D01*
X123537095Y-98720299D01*
X123788505Y-98552312D01*
X124002312Y-98338505D01*
X124170299Y-98087095D01*
X124286011Y-97807743D01*
X124345000Y-97511184D01*
X124345000Y-97208816D01*
X124286011Y-96912257D01*
X124170299Y-96632905D01*
X124002312Y-96381495D01*
X123788505Y-96167688D01*
X123537095Y-95999701D01*
X123257743Y-95883989D01*
X122961184Y-95825000D01*
X122658816Y-95825000D01*
X122362257Y-95883989D01*
X122082905Y-95999701D01*
X121831495Y-96167688D01*
X121617688Y-96381495D01*
X121449701Y-96632905D01*
X121333989Y-96912257D01*
X121275000Y-97208816D01*
X119762000Y-97208816D01*
X119762000Y-92709080D01*
X121925525Y-92709080D01*
X122009208Y-92963261D01*
X122281775Y-93094158D01*
X122574642Y-93169365D01*
X122876553Y-93185991D01*
X123175907Y-93143397D01*
X123461199Y-93043222D01*
X123610792Y-92963261D01*
X123694475Y-92709080D01*
X122810000Y-91824605D01*
X121925525Y-92709080D01*
X119762000Y-92709080D01*
X119762000Y-91711553D01*
X121269009Y-91711553D01*
X121311603Y-92010907D01*
X121411778Y-92296199D01*
X121491739Y-92445792D01*
X121745920Y-92529475D01*
X122630395Y-91645000D01*
X122989605Y-91645000D01*
X123874080Y-92529475D01*
X124128261Y-92445792D01*
X124259158Y-92173225D01*
X124334365Y-91880358D01*
X124350991Y-91578447D01*
X124308397Y-91279093D01*
X124208222Y-90993801D01*
X124128261Y-90844208D01*
X123874080Y-90760525D01*
X122989605Y-91645000D01*
X122630395Y-91645000D01*
X121745920Y-90760525D01*
X121491739Y-90844208D01*
X121360842Y-91116775D01*
X121285635Y-91409642D01*
X121269009Y-91711553D01*
X119762000Y-91711553D01*
X119762000Y-90580920D01*
X121925525Y-90580920D01*
X122810000Y-91465395D01*
X123694475Y-90580920D01*
X123610792Y-90326739D01*
X123338225Y-90195842D01*
X123045358Y-90120635D01*
X122743447Y-90104009D01*
X122444093Y-90146603D01*
X122158801Y-90246778D01*
X122009208Y-90326739D01*
X121925525Y-90580920D01*
X119762000Y-90580920D01*
X119762000Y-73992000D01*
X184278000Y-73992000D01*
X184278000Y-137238000D01*
G37*
%TD.AperFunction*%
%TD*%
M02*
