%TF.GenerationSoftware,KiCad,Pcbnew,6.0.2+dfsg-1*%
%TF.CreationDate,2023-01-12T07:51:56+09:00*%
%TF.ProjectId,Akashi-10,416b6173-6869-42d3-9130-2e6b69636164,rev?*%
%TF.SameCoordinates,Original*%
%TF.FileFunction,Legend,Top*%
%TF.FilePolarity,Positive*%
%FSLAX46Y46*%
G04 Gerber Fmt 4.6, Leading zero omitted, Abs format (unit mm)*
G04 Created by KiCad (PCBNEW 6.0.2+dfsg-1) date 2023-01-12 07:51:56*
%MOMM*%
%LPD*%
G01*
G04 APERTURE LIST*
%ADD10C,0.150000*%
%ADD11C,0.120000*%
G04 APERTURE END LIST*
D10*
%TO.C,P1*%
X145261904Y-129952380D02*
X145261904Y-128952380D01*
X145642857Y-128952380D01*
X145738095Y-129000000D01*
X145785714Y-129047619D01*
X145833333Y-129142857D01*
X145833333Y-129285714D01*
X145785714Y-129380952D01*
X145738095Y-129428571D01*
X145642857Y-129476190D01*
X145261904Y-129476190D01*
X146785714Y-129952380D02*
X146214285Y-129952380D01*
X146500000Y-129952380D02*
X146500000Y-128952380D01*
X146404761Y-129095238D01*
X146309523Y-129190476D01*
X146214285Y-129238095D01*
%TO.C,TP1*%
X122248095Y-99312380D02*
X122819523Y-99312380D01*
X122533809Y-100312380D02*
X122533809Y-99312380D01*
X123152857Y-100312380D02*
X123152857Y-99312380D01*
X123533809Y-99312380D01*
X123629047Y-99360000D01*
X123676666Y-99407619D01*
X123724285Y-99502857D01*
X123724285Y-99645714D01*
X123676666Y-99740952D01*
X123629047Y-99788571D01*
X123533809Y-99836190D01*
X123152857Y-99836190D01*
X124676666Y-100312380D02*
X124105238Y-100312380D01*
X124390952Y-100312380D02*
X124390952Y-99312380D01*
X124295714Y-99455238D01*
X124200476Y-99550476D01*
X124105238Y-99598095D01*
%TO.C,TP2*%
X122248095Y-93597380D02*
X122819523Y-93597380D01*
X122533809Y-94597380D02*
X122533809Y-93597380D01*
X123152857Y-94597380D02*
X123152857Y-93597380D01*
X123533809Y-93597380D01*
X123629047Y-93645000D01*
X123676666Y-93692619D01*
X123724285Y-93787857D01*
X123724285Y-93930714D01*
X123676666Y-94025952D01*
X123629047Y-94073571D01*
X123533809Y-94121190D01*
X123152857Y-94121190D01*
X124105238Y-93692619D02*
X124152857Y-93645000D01*
X124248095Y-93597380D01*
X124486190Y-93597380D01*
X124581428Y-93645000D01*
X124629047Y-93692619D01*
X124676666Y-93787857D01*
X124676666Y-93883095D01*
X124629047Y-94025952D01*
X124057619Y-94597380D01*
X124676666Y-94597380D01*
%TO.C,U1*%
X150098095Y-90032380D02*
X150098095Y-90841904D01*
X150145714Y-90937142D01*
X150193333Y-90984761D01*
X150288571Y-91032380D01*
X150479047Y-91032380D01*
X150574285Y-90984761D01*
X150621904Y-90937142D01*
X150669523Y-90841904D01*
X150669523Y-90032380D01*
X151669523Y-91032380D02*
X151098095Y-91032380D01*
X151383809Y-91032380D02*
X151383809Y-90032380D01*
X151288571Y-90175238D01*
X151193333Y-90270476D01*
X151098095Y-90318095D01*
%TO.C,REF\u002A\u002A*%
X170666666Y-137152380D02*
X170333333Y-136676190D01*
X170095238Y-137152380D02*
X170095238Y-136152380D01*
X170476190Y-136152380D01*
X170571428Y-136200000D01*
X170619047Y-136247619D01*
X170666666Y-136342857D01*
X170666666Y-136485714D01*
X170619047Y-136580952D01*
X170571428Y-136628571D01*
X170476190Y-136676190D01*
X170095238Y-136676190D01*
X171095238Y-136628571D02*
X171428571Y-136628571D01*
X171571428Y-137152380D02*
X171095238Y-137152380D01*
X171095238Y-136152380D01*
X171571428Y-136152380D01*
X172333333Y-136628571D02*
X172000000Y-136628571D01*
X172000000Y-137152380D02*
X172000000Y-136152380D01*
X172476190Y-136152380D01*
X173000000Y-136152380D02*
X173000000Y-136390476D01*
X172761904Y-136295238D02*
X173000000Y-136390476D01*
X173238095Y-136295238D01*
X172857142Y-136580952D02*
X173000000Y-136390476D01*
X173142857Y-136580952D01*
X173761904Y-136152380D02*
X173761904Y-136390476D01*
X173523809Y-136295238D02*
X173761904Y-136390476D01*
X174000000Y-136295238D01*
X173619047Y-136580952D02*
X173761904Y-136390476D01*
X173904761Y-136580952D01*
X157666666Y-137152380D02*
X157333333Y-136676190D01*
X157095238Y-137152380D02*
X157095238Y-136152380D01*
X157476190Y-136152380D01*
X157571428Y-136200000D01*
X157619047Y-136247619D01*
X157666666Y-136342857D01*
X157666666Y-136485714D01*
X157619047Y-136580952D01*
X157571428Y-136628571D01*
X157476190Y-136676190D01*
X157095238Y-136676190D01*
X158095238Y-136628571D02*
X158428571Y-136628571D01*
X158571428Y-137152380D02*
X158095238Y-137152380D01*
X158095238Y-136152380D01*
X158571428Y-136152380D01*
X159333333Y-136628571D02*
X159000000Y-136628571D01*
X159000000Y-137152380D02*
X159000000Y-136152380D01*
X159476190Y-136152380D01*
X160000000Y-136152380D02*
X160000000Y-136390476D01*
X159761904Y-136295238D02*
X160000000Y-136390476D01*
X160238095Y-136295238D01*
X159857142Y-136580952D02*
X160000000Y-136390476D01*
X160142857Y-136580952D01*
X160761904Y-136152380D02*
X160761904Y-136390476D01*
X160523809Y-136295238D02*
X160761904Y-136390476D01*
X161000000Y-136295238D01*
X160619047Y-136580952D02*
X160761904Y-136390476D01*
X160904761Y-136580952D01*
X170666666Y-112952380D02*
X170333333Y-112476190D01*
X170095238Y-112952380D02*
X170095238Y-111952380D01*
X170476190Y-111952380D01*
X170571428Y-112000000D01*
X170619047Y-112047619D01*
X170666666Y-112142857D01*
X170666666Y-112285714D01*
X170619047Y-112380952D01*
X170571428Y-112428571D01*
X170476190Y-112476190D01*
X170095238Y-112476190D01*
X171095238Y-112428571D02*
X171428571Y-112428571D01*
X171571428Y-112952380D02*
X171095238Y-112952380D01*
X171095238Y-111952380D01*
X171571428Y-111952380D01*
X172333333Y-112428571D02*
X172000000Y-112428571D01*
X172000000Y-112952380D02*
X172000000Y-111952380D01*
X172476190Y-111952380D01*
X173000000Y-111952380D02*
X173000000Y-112190476D01*
X172761904Y-112095238D02*
X173000000Y-112190476D01*
X173238095Y-112095238D01*
X172857142Y-112380952D02*
X173000000Y-112190476D01*
X173142857Y-112380952D01*
X173761904Y-111952380D02*
X173761904Y-112190476D01*
X173523809Y-112095238D02*
X173761904Y-112190476D01*
X174000000Y-112095238D01*
X173619047Y-112380952D02*
X173761904Y-112190476D01*
X173904761Y-112380952D01*
X131666666Y-99952380D02*
X131333333Y-99476190D01*
X131095238Y-99952380D02*
X131095238Y-98952380D01*
X131476190Y-98952380D01*
X131571428Y-99000000D01*
X131619047Y-99047619D01*
X131666666Y-99142857D01*
X131666666Y-99285714D01*
X131619047Y-99380952D01*
X131571428Y-99428571D01*
X131476190Y-99476190D01*
X131095238Y-99476190D01*
X132095238Y-99428571D02*
X132428571Y-99428571D01*
X132571428Y-99952380D02*
X132095238Y-99952380D01*
X132095238Y-98952380D01*
X132571428Y-98952380D01*
X133333333Y-99428571D02*
X133000000Y-99428571D01*
X133000000Y-99952380D02*
X133000000Y-98952380D01*
X133476190Y-98952380D01*
X134000000Y-98952380D02*
X134000000Y-99190476D01*
X133761904Y-99095238D02*
X134000000Y-99190476D01*
X134238095Y-99095238D01*
X133857142Y-99380952D02*
X134000000Y-99190476D01*
X134142857Y-99380952D01*
X134761904Y-98952380D02*
X134761904Y-99190476D01*
X134523809Y-99095238D02*
X134761904Y-99190476D01*
X135000000Y-99095238D01*
X134619047Y-99380952D02*
X134761904Y-99190476D01*
X134904761Y-99380952D01*
X126666666Y-137152380D02*
X126333333Y-136676190D01*
X126095238Y-137152380D02*
X126095238Y-136152380D01*
X126476190Y-136152380D01*
X126571428Y-136200000D01*
X126619047Y-136247619D01*
X126666666Y-136342857D01*
X126666666Y-136485714D01*
X126619047Y-136580952D01*
X126571428Y-136628571D01*
X126476190Y-136676190D01*
X126095238Y-136676190D01*
X127095238Y-136628571D02*
X127428571Y-136628571D01*
X127571428Y-137152380D02*
X127095238Y-137152380D01*
X127095238Y-136152380D01*
X127571428Y-136152380D01*
X128333333Y-136628571D02*
X128000000Y-136628571D01*
X128000000Y-137152380D02*
X128000000Y-136152380D01*
X128476190Y-136152380D01*
X129000000Y-136152380D02*
X129000000Y-136390476D01*
X128761904Y-136295238D02*
X129000000Y-136390476D01*
X129238095Y-136295238D01*
X128857142Y-136580952D02*
X129000000Y-136390476D01*
X129142857Y-136580952D01*
X129761904Y-136152380D02*
X129761904Y-136390476D01*
X129523809Y-136295238D02*
X129761904Y-136390476D01*
X130000000Y-136295238D01*
X129619047Y-136580952D02*
X129761904Y-136390476D01*
X129904761Y-136580952D01*
X175666666Y-137152380D02*
X175333333Y-136676190D01*
X175095238Y-137152380D02*
X175095238Y-136152380D01*
X175476190Y-136152380D01*
X175571428Y-136200000D01*
X175619047Y-136247619D01*
X175666666Y-136342857D01*
X175666666Y-136485714D01*
X175619047Y-136580952D01*
X175571428Y-136628571D01*
X175476190Y-136676190D01*
X175095238Y-136676190D01*
X176095238Y-136628571D02*
X176428571Y-136628571D01*
X176571428Y-137152380D02*
X176095238Y-137152380D01*
X176095238Y-136152380D01*
X176571428Y-136152380D01*
X177333333Y-136628571D02*
X177000000Y-136628571D01*
X177000000Y-137152380D02*
X177000000Y-136152380D01*
X177476190Y-136152380D01*
X178000000Y-136152380D02*
X178000000Y-136390476D01*
X177761904Y-136295238D02*
X178000000Y-136390476D01*
X178238095Y-136295238D01*
X177857142Y-136580952D02*
X178000000Y-136390476D01*
X178142857Y-136580952D01*
X178761904Y-136152380D02*
X178761904Y-136390476D01*
X178523809Y-136295238D02*
X178761904Y-136390476D01*
X179000000Y-136295238D01*
X178619047Y-136580952D02*
X178761904Y-136390476D01*
X178904761Y-136580952D01*
X131666666Y-137152380D02*
X131333333Y-136676190D01*
X131095238Y-137152380D02*
X131095238Y-136152380D01*
X131476190Y-136152380D01*
X131571428Y-136200000D01*
X131619047Y-136247619D01*
X131666666Y-136342857D01*
X131666666Y-136485714D01*
X131619047Y-136580952D01*
X131571428Y-136628571D01*
X131476190Y-136676190D01*
X131095238Y-136676190D01*
X132095238Y-136628571D02*
X132428571Y-136628571D01*
X132571428Y-137152380D02*
X132095238Y-137152380D01*
X132095238Y-136152380D01*
X132571428Y-136152380D01*
X133333333Y-136628571D02*
X133000000Y-136628571D01*
X133000000Y-137152380D02*
X133000000Y-136152380D01*
X133476190Y-136152380D01*
X134000000Y-136152380D02*
X134000000Y-136390476D01*
X133761904Y-136295238D02*
X134000000Y-136390476D01*
X134238095Y-136295238D01*
X133857142Y-136580952D02*
X134000000Y-136390476D01*
X134142857Y-136580952D01*
X134761904Y-136152380D02*
X134761904Y-136390476D01*
X134523809Y-136295238D02*
X134761904Y-136390476D01*
X135000000Y-136295238D01*
X134619047Y-136580952D02*
X134761904Y-136390476D01*
X134904761Y-136580952D01*
D11*
%TO.C,P1*%
X128500000Y-131000000D02*
X175500000Y-131000000D01*
X176000000Y-131000000D02*
X176000000Y-138000000D01*
X175500000Y-131000000D02*
X176000000Y-131000000D01*
X128500000Y-138000000D02*
X128500000Y-131000000D01*
%TO.C,TP1*%
X124510000Y-97360000D02*
G75*
G03*
X124510000Y-97360000I-1700000J0D01*
G01*
%TO.C,TP2*%
X124510000Y-91645000D02*
G75*
G03*
X124510000Y-91645000I-1700000J0D01*
G01*
%TO.C,U1*%
X125460000Y-72800000D02*
X176260000Y-72800000D01*
X176260000Y-88040000D02*
X125460000Y-88040000D01*
X125460000Y-82960000D02*
X176260000Y-82960000D01*
X176260000Y-82960000D02*
X176260000Y-88040000D01*
X176260000Y-72800000D02*
X176260000Y-82960000D01*
X125460000Y-82960000D02*
X125460000Y-72800000D01*
X125460000Y-88040000D02*
X125460000Y-82960000D01*
%TD*%
M02*
