%TF.GenerationSoftware,KiCad,Pcbnew,6.0.2+dfsg-1*%
%TF.CreationDate,2023-01-12T07:59:45+09:00*%
%TF.ProjectId,Akashi-10,416b6173-6869-42d3-9130-2e6b69636164,rev?*%
%TF.SameCoordinates,Original*%
%TF.FileFunction,Soldermask,Bot*%
%TF.FilePolarity,Negative*%
%FSLAX46Y46*%
G04 Gerber Fmt 4.6, Leading zero omitted, Abs format (unit mm)*
G04 Created by KiCad (PCBNEW 6.0.2+dfsg-1) date 2023-01-12 07:59:45*
%MOMM*%
%LPD*%
G01*
G04 APERTURE LIST*
%ADD10R,0.500000X6.000000*%
%ADD11C,1.800000*%
%ADD12R,1.600000X1.600000*%
%ADD13C,1.600000*%
%ADD14C,2.800000*%
%ADD15C,2.000000*%
%ADD16C,1.900000*%
%ADD17R,1.700000X1.700000*%
%ADD18O,1.700000X1.700000*%
G04 APERTURE END LIST*
D10*
%TO.C,P1*%
X130000000Y-134500000D03*
X135500000Y-134500000D03*
X137756000Y-134500000D03*
X140012000Y-134500000D03*
X142268000Y-134500000D03*
X144524000Y-134500000D03*
X146780000Y-134500000D03*
X149036000Y-134500000D03*
X151292000Y-134500000D03*
X153548000Y-134500000D03*
X155804000Y-134500000D03*
X162200000Y-134500000D03*
X164300000Y-134500000D03*
X166580000Y-134500000D03*
X168860000Y-134500000D03*
X174560000Y-134500000D03*
%TD*%
D11*
%TO.C,TP1*%
X122810000Y-92280000D03*
%TD*%
%TO.C,TP2*%
X122810000Y-85930000D03*
%TD*%
D12*
%TO.C,U1*%
X128000000Y-85500000D03*
D13*
X130540000Y-85500000D03*
X133080000Y-85500000D03*
X135620000Y-85500000D03*
X138160000Y-85500000D03*
X140700000Y-85500000D03*
X143240000Y-85500000D03*
X145780000Y-85500000D03*
X148320000Y-85500000D03*
X150860000Y-85500000D03*
X153400000Y-85500000D03*
X155940000Y-85500000D03*
X158480000Y-85500000D03*
X161020000Y-85500000D03*
X163560000Y-85500000D03*
X166100000Y-85500000D03*
X168640000Y-85500000D03*
X171180000Y-85500000D03*
X173720000Y-85500000D03*
%TD*%
D14*
%TO.C,REF\u002A\u002A*%
X171500000Y-134200000D03*
%TD*%
%TO.C,REF\u002A\u002A*%
X158500000Y-134200000D03*
%TD*%
D15*
%TO.C,REF\u002A\u002A*%
X171500000Y-110000000D03*
%TD*%
%TO.C,REF\u002A\u002A*%
X132500000Y-97000000D03*
%TD*%
D16*
%TO.C,REF\u002A\u002A*%
X127500000Y-134200000D03*
%TD*%
%TO.C,REF\u002A\u002A*%
X176500000Y-134200000D03*
%TD*%
D14*
%TO.C,REF\u002A\u002A*%
X132500000Y-134200000D03*
%TD*%
D17*
%TO.C,J1*%
X128000000Y-116000000D03*
D18*
X128000000Y-118540000D03*
X130540000Y-116000000D03*
X130540000Y-118540000D03*
X133080000Y-116000000D03*
X133080000Y-118540000D03*
X135620000Y-116000000D03*
X135620000Y-118540000D03*
X138160000Y-116000000D03*
X138160000Y-118540000D03*
X140700000Y-116000000D03*
X140700000Y-118540000D03*
X143240000Y-116000000D03*
X143240000Y-118540000D03*
X145780000Y-116000000D03*
X145780000Y-118540000D03*
X148320000Y-116000000D03*
X148320000Y-118540000D03*
X150860000Y-116000000D03*
X150860000Y-118540000D03*
X153400000Y-116000000D03*
X153400000Y-118540000D03*
X155940000Y-116000000D03*
X155940000Y-118540000D03*
X158480000Y-116000000D03*
X158480000Y-118540000D03*
X161020000Y-116000000D03*
X161020000Y-118540000D03*
X163560000Y-116000000D03*
X163560000Y-118540000D03*
X166100000Y-116000000D03*
X166100000Y-118540000D03*
X168640000Y-116000000D03*
X168640000Y-118540000D03*
X171180000Y-116000000D03*
X171180000Y-118540000D03*
X173720000Y-116000000D03*
X173720000Y-118540000D03*
X176260000Y-116000000D03*
X176260000Y-118540000D03*
%TD*%
M02*
